<?xml version="1.0" encoding="utf-8"?>
<!-- Generator: Adobe Illustrator 21.0.0, SVG Export Plug-In . SVG Version: 6.00 Build 0)  -->
<svg version="1.1" id="Layer_1" xmlns="http://www.w3.org/2000/svg" xmlns:xlink="http://www.w3.org/1999/xlink" x="0px" y="0px"
	 viewBox="0 0 482.2 169" style="enable-background:new 0 0 482.2 169;" xml:space="preserve">
<style type="text/css">
	.st0{fill:#FFFFFF;}
</style>
<g>
	<g>
		<path class="st0" d="M46.2,19.5c0.7,0.9,1,1.4,1.4,1.9c6.1,8.1,9.5,12.7,17.4,24.5c5,7.4,6.6,8.6,11.6,11.3
			c0.8,0.5,1.3,0.5,0.2,0.7c-3.9,0.6-7.1-0.8-9.4-4c-7.8-10.5-17.5-18.8-28.6-25.6C27.1,21.2,14,16.3,2,10.8c-0.8-0.4-1.1-0.7-2-1.1
			c4-1.9,8.3-2.6,12.7-2.8C25.5,6.3,38,8.6,50.2,12.1c14.1,4,28.1,8.7,39.6,17.9c5.3,4.3,5.2,4.4,8.2,7.3
			C82.1,27.8,65.5,20.3,46.2,19.5z M32.7,15.2c6.7-0.2,12.3,0.3,19,1.1c-11.1-3.6-22.6-5.6-34.5-4.6c11.5,5.7,22.8,11.4,34.5,20.7
			C51.7,32.4,45.5,25.4,32.7,15.2z"/>
		<path class="st0" d="M171.7,48.4c-0.9-1.4-1.9-2.3-3-3c-5.8-3.9-12.1-6.2-19-6.7c-5.9-0.5-10.7-2.9-14.7-7.4
			c-7.9-9.2-22.5-10.1-31.4-2.1c-0.2,0.2-0.5,0.3-0.5,0.8c2-0.6,3.4-1.3,5.4-1.8c6-1.7,11.9-1.8,17.8,0.5c4.4,1.7,6.8,4.9,6.8,8.8
			c0,3.6-1.9,6.8-5.2,7.9c-7.5,2.4-12.6,7.6-15.9,14.7c-1.1,2.4-2.6,4.4-4.3,6c-2.2,2-4.4,2.8-6.6,3.6c-5.7,2.2-8.4,1.3-12.9,4.2
			c-0.9,0.6-1.6,1.1-2.1,1.5c1.1-0.4,2.8-0.9,4.9-1.4c6.4-1.6,7.9-0.8,11.9-2.1c1.8-0.6,5.6-2,8.8-5.5c1.8-2,3.2-4.3,4.2-7.2
			c2.1-6.2,6.1-9.8,12.1-11.9c8-2.8,16.2-4.4,24.6-3.8c5.7,0.4,11.1,2.1,16.5,4.1C169.7,47.7,170.6,48,171.7,48.4z"/>
		<path class="st0" d="M63.7,85.2c0.6,5.8,2.3,12.4,5,17.6c0.6,1.2,1,1.3,1.9,0.2c1.2-1.6,1.8-4.4,2-6.4c0.4-4.4-0.5-8.7-1.1-13
			c-0.4-2.8-0.8-5.7,0.4-8.9c2.4,8.4,4.7,16.4,6.8,24.4c0.8,3,0.7,6.1,0.3,9.1c-1,6.8-4.5,12.3-8.9,17.4c-1,1.2-1.4,1.1-2.1-0.2
			c-5-8.8-7.3-18.2-7.8-28.2c-0.3-6.6,0.3-13.3,1.2-19.8c0.5-3.7,0.9-7.4,2-11C63.4,72.7,63,79,63.7,85.2z M67.2,114.4
			c2.4,3.8,2.6,3.8,5.1,0.1c2.6-3.7,4.1-7.8,3.9-12.5c-3.2,7.2-3.5,7.1-6.4,10.1c-4.8-4.6-5.7-8.1-7.3-13
			C63.2,104.6,64.2,109.8,67.2,114.4z"/>
		<path class="st0" d="M13.4,28.9c0,0,2.5,0.9,3.6,1.4c7.8,3.1,15.1,6.5,21.6,10.2c1.2,0.6,2.7,1.4,3.9,2.1c0.1-0.1-2.4-3-14.3-11.2
			c2.9,0.3,4.3,0.6,8.1,0.2c1.2-0.1,2.4-0.3,2.7,0.2c0.3,0.5-0.4,0.6-1.7,1.3c-1.2,0.6-1.6,0.9-0.3,2c4,3.8,4,3.7,10.2,9.1
			c3.1,2.8,6.3,5.4,9.4,8.2C39.4,42.7,22.1,32.8,2.7,29.6c4.8-3.7,18.8-4.8,27.5-1.6C13.6,27.3,13.4,28.9,13.4,28.9z"/>
		<path class="st0" d="M81.8,50.3C72.4,42.5,69.4,38.7,67.6,33c8.8,0.9,13.1,2.3,19.5,4.4c-4.3-3-10.3-5.2-13.4-6
			c-3.9-1-5.7-1.3-9.9-1.9c-1.7-0.2-1.4,0.2-1,1.3c3.4,9.3,9.8,15.7,18.9,19.5C81.7,50.4,82.6,50.9,81.8,50.3z"/>
	</g>
	<g>
		<path class="st0" d="M154.8,88.7c0-2.6,1.3-4,4-4c2.7,0,4,1.3,4,3.9l-0.1,17.3c0,1.8-0.8,2.7-2.5,2.7l-17.2,0.1
			c-5.9,0-10.7-1.8-14.4-5.5c-3.6-3.6-5.5-8.4-5.5-14.4c0-6,1.8-10.8,5.4-14.4c3.6-3.6,8.4-5.5,14.2-5.6l16.5,0
			c2.3,0,3.4,1.3,3.4,3.9s-1.1,4-3.3,3.9l-1.9,0.1l-14.5,0c-3.5,0.1-6.3,1.2-8.5,3.5c-2.2,2.2-3.3,5.1-3.3,8.6c0,5,2,8.5,6.1,10.6
			c1.8,0.9,3.7,1.4,5.8,1.4l9.8-0.1c1.3,0.1,1.9-0.5,1.9-1.7L154.8,88.7L154.8,88.7z"/>
		<path class="st0" d="M197.4,92.8l-12.8,0v5.1c0,1.9,0.8,2.9,2.3,2.9h25.9c2.3,0,3.4,1.4,3.4,4c0,2.6-1.2,4-3.6,3.9h-9.8l-21.9,0
			c-2.8,0-4.3-1.6-4.3-4.6V73.6c0-3.1,1.4-4.7,4.1-4.7l32.1,0c2.3,0,3.4,1.3,3.4,3.9s-1.1,4-3.3,3.9h-5.1h-2.9h-17.9
			c-1.6,0.1-2.3,1.1-2.3,2.9v5.3h13c2.7,0,4,1.4,4,4C201.6,91.5,200.2,92.8,197.4,92.8z"/>
		<path class="st0" d="M269.7,78.2l-0.1,26.9c0.1,2.4-1.2,3.5-3.7,3.5h-2.1c-1.4,0-2.5-0.4-3.4-1.4l-19.4-20.3
			c-1.9-1.6-2.9-1.6-2.9,0v3.9v13.8c0.1,2.7-1.2,4-3.9,4c-2.7,0-4-1.4-4-4V92.5V72c0-2,0.9-3,2.7-3.1h1.9c1.2,0.1,2.4,0.6,3.4,1.6
			l21,22.6c1.7,1,2.6,0.6,2.6-1.2v-11V73c-0.2-2.7,1.1-4,3.8-4c2.7,0,4.1,1.3,4.1,3.9L269.7,78.2L269.7,78.2z"/>
		<path class="st0" d="M304.1,92.8l-12.8,0v5.1c0,1.9,0.8,2.9,2.3,2.9h25.9c2.3,0,3.4,1.4,3.4,4c0,2.6-1.2,4-3.6,3.9h-9.8l-21.9,0
			c-2.8,0-4.3-1.6-4.3-4.6V73.6c0-3.1,1.4-4.7,4.1-4.7l32.1,0c2.3,0,3.4,1.3,3.4,3.9s-1.1,4-3.3,3.9h-5.1h-2.9h-17.9
			c-1.5,0.1-2.3,1.1-2.3,2.9v5.3h13c2.7,0,4,1.4,4,4C308.4,91.5,307,92.8,304.1,92.8z"/>
		<path class="st0" d="M351.5,88.9c0-2.6,1.3-4,4-4l8.4,0c2.2,0,3.6-0.6,4.2-1.9c0.3-0.5,0.4-1.2,0.4-2.1c0-1.1-0.2-1.8-0.5-2.3
			c-0.3-0.5-1-0.9-2-1.2c-1.2-0.4-3-0.6-5.4-0.6h-13.2c-1.8,0-2.7,1-2.7,2.9v24.9c0.1,2.7-1.2,4-3.9,4c-2.7,0-4-1.4-4-4V74
			c0-3.3,1.5-5,4.5-5h19.3c6.9,0.1,11.6,1.9,14.1,5.4c1.2,1.8,1.9,4,1.9,6.6c-0.2,4.6-2.1,7.4-5.8,8.3c3.6,0.8,5.5,3.3,5.6,7.6v6.9
			v0.9c0,2.6-1.3,4-4,4c-2.6,0-3.9-1.4-3.8-4l0.1-7.9c0-0.9-0.1-1.6-0.4-2.1c-0.6-1.2-2-1.9-4.2-1.9l-8.2,0
			C352.9,92.8,351.5,91.5,351.5,88.9z"/>
		<path class="st0" d="M408.5,81.2l-9.8,25.7c-0.4,1.1-1.2,1.8-2.4,1.9h-4.1c-1.4-0.1-1.9-1.1-1.4-2.8l13.8-34.7
			c0.9-1.6,2.6-2.3,5.2-2.3c2.6,0,4.3,0.8,5,2.5l14.1,34.7c0.5,1.6,0,2.5-1.4,2.5l-4.1,0.1c-1.2-0.1-2-0.7-2.4-1.9l-10-25.7
			C410.3,78.4,409.4,78.4,408.5,81.2z"/>
		<path class="st0" d="M482.2,104.7c0,2.6-1.2,4-3.6,3.9l-2.6,0.1l-28.9,0c-3-0.1-4.5-1.8-4.5-5V73c0-2.6,1.3-4,4-4
			c2.7,0,4,1.3,3.9,4v11.9v11.9c0,2.6,1,3.9,3.1,3.9l10.3,0h14.8C481,100.7,482.2,102,482.2,104.7z"/>
	</g>
	<g>
		<path class="st0" d="M102,133.9v-1.7c-0.1-2,1.1-3,3.5-3.1h32.7c2.3,0,3.4,1.3,3.4,3.9s-1.1,3.9-3.3,3.8h-22.9l22.7,21.4
			c1.9,1.8,3.1,3.8,3.5,5.8v1.9c0,2-1,3-2.9,2.9h-33.1c-2.4,0-3.6-1.3-3.6-3.9s1.1-4,3.4-4h22.4L105.2,140
			C103.5,137.6,102.4,135.6,102,133.9z"/>
		<path class="st0" d="M176.1,153l-12.8,0v5.1c0,1.9,0.8,2.9,2.3,2.9h25.9c2.3,0,3.4,1.4,3.4,4s-1.2,4-3.6,3.9h-9.8l-21.9,0
			c-2.8,0-4.3-1.6-4.3-4.7v-30.5c0-3.1,1.4-4.7,4.1-4.7l32.1,0c2.3,0,3.4,1.3,3.4,3.9s-1.1,4-3.3,3.9h-5.1h-2.9h-18
			c-1.6,0.1-2.3,1.1-2.3,2.9v5.3h13c2.7,0,4.1,1.4,4.1,4C180.4,151.7,178.9,153,176.1,153z"/>
		<path class="st0" d="M223.6,149.1c0-2.6,1.4-4,4.1-4l8.4,0c2.2,0,3.6-0.6,4.2-1.9c0.3-0.5,0.4-1.2,0.4-2.1c0-1.1-0.2-1.8-0.5-2.3
			c-0.3-0.5-1-0.9-2-1.2c-1.2-0.4-3-0.6-5.4-0.6h-13.2c-1.8,0-2.7,1-2.7,2.9v25c0.1,2.7-1.2,4-3.9,4c-2.7,0-4.1-1.4-4.1-4v-30.7
			c0-3.3,1.5-5,4.5-5h19.3c6.9,0.1,11.6,1.9,14.1,5.5c1.2,1.8,1.9,4,1.9,6.6c-0.2,4.7-2.2,7.4-5.8,8.3c3.6,0.8,5.5,3.3,5.6,7.6v6.9
			v0.9c0,2.6-1.4,4-4.1,4c-2.6,0-3.9-1.4-3.8-4.1l0.1-7.9c0-0.9-0.1-1.6-0.4-2.1c-0.6-1.2-2-1.9-4.2-1.9l-8.2,0
			C225,153,223.6,151.7,223.6,149.1z"/>
		<path class="st0" d="M282.5,156.7l10-25.7c0.5-1.1,1.3-1.8,2.5-1.9l4.1,0.1c1.4,0,1.8,0.9,1.4,2.5l-14.2,34.7
			c-0.8,1.6-2.5,2.5-5,2.5c-2.6,0-4.4-0.7-5.2-2.3l-13.8-34.7c-0.5-1.8-0.1-2.7,1.4-2.8h4.1c1.2,0.1,2,0.7,2.4,1.9l9.8,25.7
			C280.7,159.4,281.6,159.4,282.5,156.7z"/>
		<path class="st0" d="M313.7,142.9v-9.8c0-2.6,1.4-4,4.1-4c2.7,0,4,1.3,3.9,4v31.8c0.1,2.7-1.2,4-3.9,4c-2.7,0-4.1-1.4-4.1-4V142.9
			z"/>
		<path class="st0" d="M371.4,160.9c2.3,0,3.4,1.4,3.4,4s-1.1,4-3.4,4l-16.3,0c-6,0-10.8-1.8-14.4-5.5c-3.6-3.6-5.5-8.4-5.5-14.4
			c0-6,1.8-10.8,5.5-14.4s8.4-5.5,14.3-5.6l16.4,0c2.3,0,3.4,1.3,3.4,3.9s-1.1,4-3.3,3.9l-1.3,0.1l-15.2,0c-3.5,0.1-6.3,1.2-8.5,3.5
			s-3.3,5.1-3.3,8.6c0,5,2,8.6,6.1,10.6c1.8,0.9,3.7,1.3,5.7,1.3L371.4,160.9z"/>
		<path class="st0" d="M409.5,153l-12.8,0v5.1c0,1.9,0.8,2.9,2.3,2.9h25.9c2.3,0,3.4,1.4,3.4,4s-1.2,4-3.6,3.9h-9.8l-21.9,0
			c-2.8,0-4.3-1.6-4.3-4.7v-30.5c0-3.1,1.4-4.7,4.1-4.7l32.1,0c2.3,0,3.4,1.3,3.4,3.9s-1.1,4-3.3,3.9h-5.1h-2.9h-18
			c-1.6,0.1-2.3,1.1-2.3,2.9v5.3h13c2.7,0,4.1,1.4,4.1,4C413.7,151.7,412.3,153,409.5,153z"/>
		<path class="st0" d="M469.4,145c2.8-0.1,5.6,0.9,8.4,2.9c2.8,2,4.2,5,4.2,8.9c0,2.6-0.6,4.8-1.9,6.6c-2.5,3.6-7.2,5.3-14.2,5.3
			h-20c-2.4,0-3.6-1.3-3.6-3.9c0-2.7,1.1-4,3.4-4h7H466c2.5,0,4.4-0.2,5.5-0.5c1-0.3,1.6-0.7,2-1.2c0.3-0.5,0.5-1.2,0.5-2.3
			c0-0.9-0.1-1.6-0.4-2.1c-0.6-1.2-2-1.9-4.2-1.9l-14.6,0c-2.8,0.1-5.6-0.9-8.4-2.9c-2.8-2-4.2-5-4.2-8.9c0-2.6,0.6-4.8,1.9-6.6
			c2.5-3.6,7.2-5.3,14-5.3l18.6-0.1h1.6c2.4-0.1,3.6,1.2,3.6,3.8c0,2.7-1.1,4-3.3,3.9h-20.5c-2.4,0.2-4.2,0.4-5.4,0.8
			c-1,0.3-1.6,0.7-2,1.2c-0.3,0.5-0.5,1.2-0.5,2.3c0,0.9,0.1,1.6,0.4,2.1c0.6,1.2,2,1.9,4.2,1.9l6.6,0L469.4,145z"/>
	</g>
</g>
</svg>
