<?xml version="1.0" encoding="iso-8859-1"?>
<!-- Generator: Adobe Illustrator 21.0.0, SVG Export Plug-In . SVG Version: 6.00 Build 0)  -->
<svg version="1.1" id="Layer_1" xmlns="http://www.w3.org/2000/svg" xmlns:xlink="http://www.w3.org/1999/xlink" x="0px" y="0px"
	 viewBox="0 0 171.702 121.167" style="enable-background:new 0 0 171.702 121.167;" xml:space="preserve">
<g>
	<g>
		<path style="fill:#FFFFFF;" d="M46.154,13.346c0.681,0.93,1.043,1.44,1.42,1.939c6.121,8.074,9.516,12.691,17.404,24.496
			c4.99,7.405,6.636,8.621,11.582,11.325c0.756,0.455,1.304,0.529,0.208,0.682c-3.914,0.554-7.077-0.83-9.419-4.007
			C59.584,37.245,49.81,28.974,38.705,22.179C27.095,15.075,13.989,10.095,2.039,4.594C1.278,4.183,0.894,3.927,0,3.45
			c4.045-1.924,8.343-2.566,12.708-2.762c12.826-0.574,25.271,1.755,37.513,5.28c14.052,4.046,28.114,8.664,39.576,17.925
			c5.318,4.297,5.248,4.385,8.194,7.304C82.056,21.621,65.476,14.157,46.154,13.346z M32.745,9.073
			c6.654-0.195,12.328,0.344,18.972,1.08C40.638,6.579,29.09,4.504,17.239,5.554c11.457,5.748,22.842,11.387,34.478,20.7
			C51.717,26.254,45.504,19.186,32.745,9.073z"/>
		<path style="fill:#FFFFFF;" d="M171.702,42.261c-0.873-1.438-1.908-2.286-3.027-3.041c-5.777-3.896-12.126-6.171-19.024-6.722
			c-5.9-0.471-10.702-2.857-14.661-7.427c-7.949-9.175-22.534-10.096-31.437-2.085c-0.218,0.196-0.472,0.35-0.532,0.815
			c1.951-0.632,3.422-1.265,5.392-1.83c5.961-1.712,11.896-1.787,17.752,0.497c4.351,1.697,6.776,4.859,6.808,8.818
			c0.028,3.63-1.865,6.797-5.249,7.887c-7.547,2.431-12.637,7.575-15.942,14.653c-1.126,2.411-2.566,4.381-4.338,5.951
			c-2.204,1.953-4.367,2.799-6.588,3.643c-5.684,2.16-8.408,1.343-12.911,4.154c-0.93,0.58-1.643,1.133-2.093,1.502
			c1.093-0.373,2.798-0.918,4.919-1.437c6.388-1.56,7.87-0.753,11.943-2.106c1.754-0.583,5.629-2.018,8.817-5.478
			c1.812-1.966,3.212-4.349,4.151-7.151c2.075-6.195,6.118-9.842,12.076-11.912c8.016-2.785,16.15-4.4,24.639-3.821
			c5.719,0.39,11.135,2.059,16.469,4.071C169.728,41.567,170.599,41.866,171.702,42.261z"/>
		<path style="fill:#FFFFFF;" d="M63.655,79.076c0.615,5.827,2.325,12.379,4.951,17.644c0.622,1.248,1.027,1.259,1.866,0.155
			c1.245-1.64,1.772-4.357,1.959-6.416c0.401-4.41-0.493-8.709-1.064-13.038c-0.375-2.84-0.792-5.693,0.403-8.949
			c2.369,8.441,4.688,16.4,6.808,24.412c0.785,2.968,0.74,6.065,0.296,9.132c-0.99,6.832-4.539,12.326-8.931,17.424
			c-1.011,1.173-1.389,1.124-2.147-0.208c-4.986-8.763-7.35-18.238-7.826-28.236c-0.316-6.647,0.278-13.254,1.175-19.826
			c0.502-3.681,0.946-7.388,1.97-10.988C63.381,66.488,62.992,72.793,63.655,79.076z M67.155,108.211
			c2.39,3.761,2.559,3.772,5.089,0.106c2.561-3.711,4.054-7.791,3.901-12.474c-3.225,7.172-3.467,7.118-6.355,10.096
			c-4.784-4.588-5.723-8.102-7.334-13.02C63.174,98.443,64.245,103.632,67.155,108.211z"/>
		<path style="fill:#FFFFFF;" d="M13.383,22.697c0,0,2.533,0.946,3.562,1.364c7.757,3.149,15.088,6.544,21.634,10.233
			c1.201,0.572,2.7,1.428,3.936,2.053c0.084-0.138-2.352-3.032-14.285-11.198c2.919,0.278,4.313,0.606,8.06,0.154
			c1.176-0.142,2.412-0.291,2.666,0.152c0.282,0.516-0.364,0.64-1.662,1.29c-1.169,0.586-1.567,0.897-0.323,2.036
			c4.018,3.822,3.967,3.715,10.168,9.068c3.057,2.762,6.299,5.412,9.352,8.178c-17.112-9.511-34.347-19.374-53.835-22.59
			c4.841-3.661,18.826-4.779,27.529-1.625C13.557,21.161,13.383,22.697,13.383,22.697z"/>
		<path style="fill:#FFFFFF;" d="M81.779,44.155c-9.379-7.847-12.401-11.592-14.15-17.357c8.832,0.882,13.126,2.318,19.471,4.45
			c-4.251-2.955-10.289-5.167-13.433-5.982c-3.886-1.024-5.707-1.317-9.94-1.866c-1.683-0.218-1.377,0.201-0.973,1.298
			c3.424,9.289,9.823,15.688,18.864,19.544C81.654,44.258,82.578,44.69,81.779,44.155z"/>
	</g>
</g>
</svg>
