<svg id="Objects" xmlns="http://www.w3.org/2000/svg" viewBox="0 0 805.26 929.83">
  <defs>
    <style>
      .cls-1 {
        fill: #d8dad9;
      }
    </style>
  </defs>
  <title>222</title>
  <g id="_Group_" data-name="&lt;Group&gt;">
    <g id="_Group_2" data-name="&lt;Group&gt;">
      <g id="_Group_3" data-name="&lt;Group&gt;">
        <g id="_Group_4" data-name="&lt;Group&gt;">
          <path class="cls-1" d="M-498.68,269.74V538.92L-720.1,269.74h221.43m3-3H-726.46l230.78,280.55V266.74h0Z" transform="translate(898.31 -82.38)"/>
        </g>
        <g id="_Group_5" data-name="&lt;Group&gt;">
          <path class="cls-1" d="M-498.68,88.61V263.74H-717.9L-498.68,88.61m3-6.24L-726.46,266.74h230.78V82.38h0Z" transform="translate(898.31 -82.38)"/>
        </g>
        <g id="_Group_6" data-name="&lt;Group&gt;">
          <path class="cls-1" d="M-271.25,269.74L-492.68,538.92V269.74h221.43m6.35-3H-495.68V547.29L-264.9,266.74h0Z" transform="translate(898.31 -82.38)"/>
        </g>
        <g id="_Group_7" data-name="&lt;Group&gt;">
          <path class="cls-1" d="M-492.68,88.61l219.22,175.13H-492.68V88.61m-3-6.24V266.74H-264.9L-495.68,82.38h0Z" transform="translate(898.31 -82.38)"/>
        </g>
      </g>
      <g id="_Group_8" data-name="&lt;Group&gt;">
        <g id="_Group_9" data-name="&lt;Group&gt;">
          <path class="cls-1" d="M-492.68,90.75l221.43,269.18H-492.68V90.75m-3-8.37V362.93H-264.9L-495.68,82.38h0Z" transform="translate(898.31 -82.38)"/>
        </g>
        <g id="_Group_10" data-name="&lt;Group&gt;">
          <path class="cls-1" d="M-273.46,365.93L-492.68,541.06V365.93h219.22m8.56-3H-495.68V547.29L-264.9,362.93h0Z" transform="translate(898.31 -82.38)"/>
        </g>
        <g id="_Group_11" data-name="&lt;Group&gt;">
          <path class="cls-1" d="M-498.68,90.75V359.93H-720.1L-498.68,90.75m3-8.37L-726.46,362.93h230.78V82.38h0Z" transform="translate(898.31 -82.38)"/>
        </g>
        <g id="_Group_12" data-name="&lt;Group&gt;">
          <path class="cls-1" d="M-498.68,365.93V541.06L-717.9,365.93h219.22m3-3H-726.46l230.78,184.37V362.93h0Z" transform="translate(898.31 -82.38)"/>
        </g>
      </g>
    </g>
    <g id="_Group_13" data-name="&lt;Group&gt;">
      <g id="_Group_14" data-name="&lt;Group&gt;">
        <g id="_Group_15" data-name="&lt;Group&gt;">
          <path class="cls-1" d="M-737.55,411.12l233.12,134.59-343.83,57.17,110.71-191.76m-1.1-4.1L-854,606.88l358.35-59.58L-738.64,407h0Z" transform="translate(898.31 -82.38)"/>
        </g>
        <g id="_Group_16" data-name="&lt;Group&gt;">
          <path class="cls-1" d="M-894.41,320.55l151.67,87.56L-852.35,598l-42.06-277.41m-3.9-5.72,44.28,292L-738.64,407l-159.67-92.18h0Z" transform="translate(898.31 -82.38)"/>
        </g>
        <g id="_Group_17" data-name="&lt;Group&gt;">
          <path class="cls-1" d="M-623.83,214.16l122.41,326.35L-734.55,405.92l110.71-191.76m0.58-7L-738.64,407l243,140.28L-623.26,207.16h0Z" transform="translate(898.31 -82.38)"/>
        </g>
        <g id="_Group_18" data-name="&lt;Group&gt;">
          <path class="cls-1" d="M-630.13,213.07L-739.74,402.92l-151.67-87.56,261.27-102.28m6.88-5.91L-898.31,314.83-738.64,407l115.39-199.86h0Z" transform="translate(898.31 -82.38)"/>
        </g>
      </g>
      <g id="_Group_19" data-name="&lt;Group&gt;">
        <g id="_Group_20" data-name="&lt;Group&gt;">
          <path class="cls-1" d="M-545.73,259.25L-656.44,451-889.56,316.42l343.83-57.17m5.77-4-358.35,59.58,243,140.28L-540,255.25h0Z" transform="translate(898.31 -82.38)"/>
        </g>
        <g id="_Group_21" data-name="&lt;Group&gt;">
          <path class="cls-1" d="M-541.64,264.17l42.06,277.41L-651.25,454l109.61-189.85m1.68-8.91L-655.34,455.11l159.67,92.18-44.28-292h0Z" transform="translate(898.31 -82.38)"/>
        </g>
        <g id="_Group_22" data-name="&lt;Group&gt;">
          <path class="cls-1" d="M-892.56,321.62l233.12,134.59L-770.16,648-892.56,321.62m-5.75-6.78L-770.73,655l115.39-199.86-243-140.28h0Z" transform="translate(898.31 -82.38)"/>
        </g>
        <g id="_Group_23" data-name="&lt;Group&gt;">
          <path class="cls-1" d="M-654.25,459.21l151.67,87.56L-763.85,649.06l109.61-189.85m-1.1-4.1L-770.73,655l275.05-107.68-159.67-92.18h0Z" transform="translate(898.31 -82.38)"/>
        </g>
      </g>
    </g>
    <g id="_Group_24" data-name="&lt;Group&gt;">
      <g id="_Group_25" data-name="&lt;Group&gt;">
        <g id="_Group_26" data-name="&lt;Group&gt;">
          <path class="cls-1" d="M-501.43,554.08L-623.83,880.43-734.55,688.67l233.12-134.59m5.75-6.78-243,140.28,115.39,199.86,127.58-340.14h0Z" transform="translate(898.31 -82.38)"/>
        </g>
        <g id="_Group_27" data-name="&lt;Group&gt;">
          <path class="cls-1" d="M-739.74,691.67l109.61,189.85L-891.41,779.23l151.67-87.56m1.1-4.1-159.67,92.18,275.05,107.68L-738.64,687.57h0Z" transform="translate(898.31 -82.38)"/>
        </g>
        <g id="_Group_28" data-name="&lt;Group&gt;">
          <path class="cls-1" d="M-848.26,491.71l343.83,57.17L-737.55,683.47-848.26,491.71m-5.77-4,115.39,199.86,243-140.28L-854,487.71h0Z" transform="translate(898.31 -82.38)"/>
        </g>
        <g id="_Group_29" data-name="&lt;Group&gt;">
          <path class="cls-1" d="M-852.35,496.62l109.61,189.85L-894.41,774l42.06-277.41m-1.68-8.91-44.28,292,159.67-92.18L-854,487.71h0Z" transform="translate(898.31 -82.38)"/>
        </g>
      </g>
      <g id="_Group_30" data-name="&lt;Group&gt;">
        <g id="_Group_31" data-name="&lt;Group&gt;">
          <path class="cls-1" d="M-770.16,446.62l110.71,191.76L-892.56,773l122.41-326.35m-0.58-7L-898.31,779.75l243-140.28L-770.73,439.62h0Z" transform="translate(898.31 -82.38)"/>
        </g>
        <g id="_Group_32" data-name="&lt;Group&gt;">
          <path class="cls-1" d="M-763.85,445.53l261.27,102.28-151.67,87.56L-763.85,445.53m-6.88-5.91,115.39,199.86,159.67-92.18L-770.73,439.62h0Z" transform="translate(898.31 -82.38)"/>
        </g>
        <g id="_Group_33" data-name="&lt;Group&gt;">
          <path class="cls-1" d="M-656.44,643.57l110.71,191.76-343.83-57.17,233.12-134.59m1.1-4.1-243,140.28L-540,839.34-655.34,639.48h0Z" transform="translate(898.31 -82.38)"/>
        </g>
        <g id="_Group_34" data-name="&lt;Group&gt;">
          <path class="cls-1" d="M-499.58,553l-42.06,277.41L-651.25,640.57-499.58,553m3.9-5.72-159.67,92.18L-540,839.34l44.28-292h0Z" transform="translate(898.31 -82.38)"/>
        </g>
      </g>
    </g>
    <g id="_Group_35" data-name="&lt;Group&gt;">
      <g id="_Group_36" data-name="&lt;Group&gt;">
        <g id="_Group_37" data-name="&lt;Group&gt;">
          <path class="cls-1" d="M-492.68,555.66l221.43,269.18H-492.68V555.66m-3-8.37V827.84H-264.9L-495.68,547.29h0Z" transform="translate(898.31 -82.38)"/>
        </g>
        <g id="_Group_38" data-name="&lt;Group&gt;">
          <path class="cls-1" d="M-273.46,830.84L-492.68,1006V830.84h219.22m8.56-3H-495.68v184.37L-264.9,827.84h0Z" transform="translate(898.31 -82.38)"/>
        </g>
        <g id="_Group_39" data-name="&lt;Group&gt;">
          <path class="cls-1" d="M-498.68,555.66V824.84H-720.1l221.43-269.18m3-8.37L-726.46,827.84h230.78V547.29h0Z" transform="translate(898.31 -82.38)"/>
        </g>
        <g id="_Group_40" data-name="&lt;Group&gt;">
          <path class="cls-1" d="M-498.68,830.84V1006L-717.9,830.84h219.22m3-3H-726.46l230.78,184.37V827.84h0Z" transform="translate(898.31 -82.38)"/>
        </g>
      </g>
      <g id="_Group_41" data-name="&lt;Group&gt;">
        <g id="_Group_42" data-name="&lt;Group&gt;">
          <path class="cls-1" d="M-498.68,734.66v269.18L-720.1,734.66h221.43m3-3H-726.46l230.78,280.55V731.66h0Z" transform="translate(898.31 -82.38)"/>
        </g>
        <g id="_Group_43" data-name="&lt;Group&gt;">
          <path class="cls-1" d="M-498.68,553.53V728.66H-717.9l219.22-175.13m3-6.24L-726.46,731.66h230.78V547.29h0Z" transform="translate(898.31 -82.38)"/>
        </g>
        <g id="_Group_44" data-name="&lt;Group&gt;">
          <path class="cls-1" d="M-271.25,734.66l-221.43,269.18V734.66h221.43m6.35-3H-495.68v280.55L-264.9,731.66h0Z" transform="translate(898.31 -82.38)"/>
        </g>
        <g id="_Group_45" data-name="&lt;Group&gt;">
          <path class="cls-1" d="M-492.68,553.53l219.22,175.13H-492.68V553.53m-3-6.24V731.66H-264.9L-495.68,547.29h0Z" transform="translate(898.31 -82.38)"/>
        </g>
      </g>
    </g>
    <g id="_Group_46" data-name="&lt;Group&gt;">
      <g id="_Group_47" data-name="&lt;Group&gt;">
        <g id="_Group_48" data-name="&lt;Group&gt;">
          <path class="cls-1" d="M-143.1,491.71L-253.81,683.47-486.93,548.88l343.83-57.17m5.77-4-358.35,59.58,243,140.28,115.39-199.86h0Z" transform="translate(898.31 -82.38)"/>
        </g>
        <g id="_Group_49" data-name="&lt;Group&gt;">
          <path class="cls-1" d="M-139,496.62L-96.95,774l-151.67-87.56L-139,496.62m1.68-8.91L-252.71,687.57-93,779.75l-44.28-292h0Z" transform="translate(898.31 -82.38)"/>
        </g>
        <g id="_Group_50" data-name="&lt;Group&gt;">
          <path class="cls-1" d="M-489.93,554.08l233.12,134.59L-367.53,880.43-489.93,554.08m-5.75-6.78L-368.1,887.43l115.39-199.86-243-140.28h0Z" transform="translate(898.31 -82.38)"/>
        </g>
        <g id="_Group_51" data-name="&lt;Group&gt;">
          <path class="cls-1" d="M-251.62,691.67l151.67,87.56L-361.22,881.51l109.61-189.85m-1.1-4.1L-368.1,887.43-93,779.75l-159.67-92.18h0Z" transform="translate(898.31 -82.38)"/>
        </g>
      </g>
      <g id="_Group_52" data-name="&lt;Group&gt;">
        <g id="_Group_53" data-name="&lt;Group&gt;">
          <path class="cls-1" d="M-334.92,643.57L-101.8,778.17l-343.83,57.17,110.71-191.76m-1.1-4.1L-451.4,839.34-93,779.75-336,639.48h0Z" transform="translate(898.31 -82.38)"/>
        </g>
        <g id="_Group_54" data-name="&lt;Group&gt;">
          <path class="cls-1" d="M-491.78,553l151.67,87.56L-449.72,830.42-491.78,553m-3.9-5.72,44.28,292L-336,639.48l-159.67-92.18h0Z" transform="translate(898.31 -82.38)"/>
        </g>
        <g id="_Group_55" data-name="&lt;Group&gt;">
          <path class="cls-1" d="M-221.2,446.62L-98.8,773-331.92,638.38-221.2,446.62m0.58-7L-336,639.48-93,779.75-220.63,439.62h0Z" transform="translate(898.31 -82.38)"/>
        </g>
        <g id="_Group_56" data-name="&lt;Group&gt;">
          <path class="cls-1" d="M-227.5,445.53L-337.11,635.38l-151.67-87.56L-227.5,445.53m6.88-5.91L-495.68,547.29-336,639.48l115.39-199.86h0Z" transform="translate(898.31 -82.38)"/>
        </g>
      </g>
    </g>
    <g id="_Group_57" data-name="&lt;Group&gt;">
      <g id="_Group_58" data-name="&lt;Group&gt;">
        <g id="_Group_59" data-name="&lt;Group&gt;">
          <path class="cls-1" d="M-367.53,214.16l110.71,191.76L-489.93,540.51l122.41-326.35m-0.58-7L-495.68,547.29l243-140.28L-368.1,207.16h0Z" transform="translate(898.31 -82.38)"/>
        </g>
        <g id="_Group_60" data-name="&lt;Group&gt;">
          <path class="cls-1" d="M-361.22,213.07L-99.95,315.35l-151.67,87.57L-361.22,213.07m-6.88-5.91L-252.71,407-93,314.83-368.1,207.16h0Z" transform="translate(898.31 -82.38)"/>
        </g>
        <g id="_Group_61" data-name="&lt;Group&gt;">
          <path class="cls-1" d="M-253.81,411.12L-143.1,602.88l-343.83-57.17,233.12-134.59m1.1-4.1-243,140.28,358.35,59.58L-252.71,407h0Z" transform="translate(898.31 -82.38)"/>
        </g>
        <g id="_Group_62" data-name="&lt;Group&gt;">
          <path class="cls-1" d="M-96.95,320.55L-139,598-248.62,408.12l151.67-87.56m3.9-5.72L-252.71,407l115.39,199.86,44.28-292h0Z" transform="translate(898.31 -82.38)"/>
        </g>
      </g>
      <g id="_Group_63" data-name="&lt;Group&gt;">
        <g id="_Group_64" data-name="&lt;Group&gt;">
          <path class="cls-1" d="M-98.8,321.62L-221.2,648-331.92,456.21-98.8,321.62m5.75-6.78L-336,455.11-220.63,655-93,314.83h0Z" transform="translate(898.31 -82.38)"/>
        </g>
        <g id="_Group_65" data-name="&lt;Group&gt;">
          <path class="cls-1" d="M-337.11,459.21L-227.5,649.06-488.78,546.77l151.67-87.56m1.1-4.1-159.67,92.18L-220.63,655-336,455.11h0Z" transform="translate(898.31 -82.38)"/>
        </g>
        <g id="_Group_66" data-name="&lt;Group&gt;">
          <path class="cls-1" d="M-445.63,259.25l343.83,57.17L-334.92,451-445.63,259.25m-5.77-4L-336,455.11-93,314.83-451.4,255.25h0Z" transform="translate(898.31 -82.38)"/>
        </g>
        <g id="_Group_67" data-name="&lt;Group&gt;">
          <path class="cls-1" d="M-449.72,264.17L-340.11,454l-151.67,87.56,42.06-277.41m-1.68-8.91-44.28,292L-336,455.11-451.4,255.25h0Z" transform="translate(898.31 -82.38)"/>
        </g>
      </g>
    </g>
  </g>
</svg>
