<svg id="Layer_1" data-name="Layer 1" xmlns="http://www.w3.org/2000/svg" viewBox="0 0 858.58 312.66">
  <defs>
    <style>
      .cls-1 {
        fill: #fff;
      }
    </style>
  </defs>
  <title>WhiteLogoFull</title>
  <g>
    <g>
      <path class="cls-1" d="M126,137.52c1.27,1.73,1.94,2.68,2.65,3.61,11.41,15,23.3,29.74,33.5,45.65,5.44,8.49,11.84,15.84,20.51,21.1a0.82,0.82,0,0,1,.39,1.27c-7.29,1-13.19-1.55-17.55-7.47-14.47-19.63-32.68-35-53.37-47.7-21.63-13.24-44.93-23-68.38-32.36-1.34-.54-3-0.64-3.75-2.54,7.54-3.59,15.55-4.78,23.68-5.15,23.9-1.07,47.09,3.27,69.9,9.84,26.18,7.54,51.27,17.62,73.75,33.4a75.32,75.32,0,0,1,15.27,13.61C192.9,152.94,162,139,126,137.52Zm-25-8,34.09,1.95c-20.64-6.66-41.67-10.4-63.75-8.44l61.4,33.82,0.59-.91Z" transform="translate(-40 -113.77)"/>
      <path class="cls-1" d="M371.34,188.94a18.62,18.62,0,0,0-6-5.94,78.76,78.76,0,0,0-37.83-13.12,41.45,41.45,0,0,1-29.15-14.5c-15.81-17.91-45.74-19.6-63.44-4a2.29,2.29,0,0,0-1.06,1.59c3.88-1.23,7.73-2.58,11.64-3.68,11.86-3.34,23.66-3.49,35.3,1,8.65,3.31,13.48,9.49,13.54,17.21,0.06,7.09-3.71,13.27-10.44,15.4-15,4.74-25.13,14.79-31.7,28.6-4.56,9.58-11.7,15.58-21.73,18.73-8.77,2.75-17.09,6.7-25.52,10.35-0.73.32-1.8,0.45-1.43,1.54,0.29,0.86,1.14.49,1.79,0.24,9.38-3.52,19.35-5,28.86-8,12.55-4,21.55-12.22,25.79-24.65,4.13-12.09,12.17-19.21,24-23.25,15.94-5.44,32.12-8.59,49-7.46,11.37,0.76,22.14,4,32.75,7.95C367.42,187.59,369.15,188.17,371.34,188.94Z" transform="translate(-40 -113.77)"/>
      <path class="cls-1" d="M163.33,260.89A89.91,89.91,0,0,0,172,292c1.16,2.32,1.91,2.35,3.48.29a19.39,19.39,0,0,0,4.21-10.15c0.75-8.22-.92-16.23-2-24.29-0.7-5.29-1.48-10.61.75-16.67,4.41,15.73,8.73,30.56,12.68,45.48a42.5,42.5,0,0,1,.55,17c-1.84,12.73-8.46,23-16.64,32.46-1.88,2.19-2.59,2.09-4-.39-9.29-16.33-13.69-34-14.58-52.61-0.59-12.38.52-24.69,2.19-36.94,0.94-6.86,1.76-13.77,3.67-20.47C162.82,237.44,162.1,249.19,163.33,260.89Zm6.52,54.28c4.45,7,4.77,7,9.48.2s7.55-14.52,7.27-23.24l-11.23,18.08L161.1,286.68C162.44,297,164.43,306.64,169.85,315.18Z" transform="translate(-40 -113.77)"/>
      <path class="cls-1" d="M96.47,152.87c-6.56-6.8-42.45-3.81-51.5,3,36.35,7.79,68.7,24.47,100.72,42.26q-8.57-7.76-17.14-15.52c-6.31-5.7-12.6-11.43-19-17.05-1.64-1.45-2-2.36.2-3.5,1-.51,2.2-1.2,1.71-2.68s-1.93-1-3-1a105.71,105.71,0,0,0-15.68.71l26.6,19.48-0.47.78c-2.26-1-4.52-2.08-6.77-3.15Q92,166.62,71.91,157c-0.86-.41-2.42-0.55-2.19-1.84s1.66-.92,2.64-1c6.86-.37,13.73-0.71,20.59-1.07C94.06,153,95.16,153,96.47,152.87Z" transform="translate(-40 -113.77)"/>
      <path class="cls-1" d="M193,194.67c-17.55-14.68-24.25-22.87-26.47-32.47,12.56,1,24.56,4.34,36.43,8.32a86.94,86.94,0,0,0-25.88-11.81c-5.83-1.69-11.71-3-17.85-2.87-1.78,0-2.58.38-1.82,2.43,6.41,17.38,18.38,29.35,35.29,36.56A0.67,0.67,0,0,0,193,194.67Z" transform="translate(-40 -113.77)"/>
    </g>
    <path class="cls-1" d="M298.61,283.77q0-7.07,7.25-7.2t7.25,7l-0.26,31q0,4.95-4.51,4.86l-30.77.22q-16,0-25.76-9.79T242,284.12q0-16,9.77-25.78t25.48-10l29.51-.09q6.16-.09,6.16,7t-6,7l-3.47.17-26,.09q-9.37.17-15.28,6.18t-5.9,15.34q0,13.5,10.94,18.92a22.87,22.87,0,0,0,10.37,2.43l17.58-.26q3.47,0.26,3.47-3.12V283.77Z" transform="translate(-40 -113.77)"/>
    <path class="cls-1" d="M377,291.06L354.07,291v9.11q0,5.21,4.17,5.12h46.35q6.16,0.09,6.16,7.2t-6.51,7H386.71l-39.23.09q-7.64,0-7.64-8.33V256.69q0-8.33,7.29-8.33l57.46-.09q6.16-.09,6.16,7t-6,7H358.24q-4.17.26-4.17,5.12v9.46h23.22q7.25,0.13,7.25,7.2T377,291.06Z" transform="translate(-40 -113.77)"/>
    <path class="cls-1" d="M508.66,264.94l-0.17,48.26q0.17,6.34-6.6,6.25h-3.82A8,8,0,0,1,492,317L457.1,280.56q-5.21-4.43-5.21.09v31.81q0.26,7.21-7,7.12t-7.25-7.2V253.82q0-5.25,4.86-5.56H446a9.83,9.83,0,0,1,6.08,2.91l37.67,40.49q4.69,2.69,4.69-2.17V255.56q-0.43-7.2,6.81-7.12t7.42,6.94v9.55Z" transform="translate(-40 -113.77)"/>
    <path class="cls-1" d="M572.59,291.06L549.68,291v9.11q0,5.21,4.17,5.12H600.2q6.16,0.09,6.16,7.2t-6.51,7H582.31l-39.23.09q-7.64,0-7.64-8.33V256.69q0-8.33,7.29-8.33l57.46-.09q6.16-.09,6.16,7t-6,7H553.84q-4.17.26-4.17,5.12v9.46H572.9q7.25,0.13,7.25,7.2T572.59,291.06Z" transform="translate(-40 -113.77)"/>
    <path class="cls-1" d="M659.65,284.12q0-7.07,7.25-7.2l15,0.09q6,0,7.6-3.34a8.73,8.73,0,0,0,.69-3.78,7.09,7.09,0,0,0-.91-4.08,6.8,6.8,0,0,0-3.56-2.08,39.72,39.72,0,0,0-9.72-1.13H652.36q-4.86,0-4.86,5.21v44.66q0.26,7.21-7,7.12t-7.25-7.2v-55q0-8.81,8-9H675.8q18.49,0.22,25.22,9.77a20.13,20.13,0,0,1,3.34,11.76q-0.61,12.5-10.33,14.93,9.72,2.08,10.07,13.54v14q0,7.07-7.25,7.2-7-.13-6.81-7.25l0.13-14.19a8.73,8.73,0,0,0-.69-3.78q-1.61-3.34-7.6-3.34l-14.67,0Q659.65,291.24,659.65,284.12Z" transform="translate(-40 -113.77)"/>
    <path class="cls-1" d="M763.9,270.27l-17.58,46a4.83,4.83,0,0,1-4.3,3.34h-7.29q-3.82-.3-2.43-5.08L757,252.44q2.39-4.17,9.37-4.08t9,4.43l25.35,62.15q1.3,4.43-2.43,4.51l-7.29.22a4.94,4.94,0,0,1-4.38-3.38l-17.84-46Q766.33,262.85,763.9,270.27Z" transform="translate(-40 -113.77)"/>
    <path class="cls-1" d="M898,312.42q0,7.12-6.51,7l-4.69.17-51.73,0q-8-.22-8-9v-55q0-7.07,7.25-7.2t7,7.12v42.79q0,7.07,5.56,6.94l18.4-.09h26.56Q898,305.3,898,312.42Z" transform="translate(-40 -113.77)"/>
    <path class="cls-1" d="M202,364.41v-3.12q0-5.95,10.76-6.25h54.16q6.16-.09,6.16,7t-5.9,7.2H226l41.66,38.19a20.27,20.27,0,0,1,5.47,10.07l-0.26,1.39q0.26,7.51-11.11,7.29h-53q-6.51.09-6.51-7t6.16-7.2h40.19L208,374.61Q203,369.27,202,364.41Z" transform="translate(-40 -113.77)"/>
    <path class="cls-1" d="M337.11,397.83l-22.92-.09v9.11q0,5.21,4.17,5.12h46.35q6.16,0.09,6.16,7.2t-6.51,7H346.84l-39.23.09Q300,426.3,300,418V363.45q0-8.33,7.29-8.33l57.46-.09q6.16-.09,6.16,7t-6,7H318.36q-4.17.26-4.17,5.12v9.46h23.22q7.25,0.13,7.25,7.2T337.11,397.83Z" transform="translate(-40 -113.77)"/>
    <path class="cls-1" d="M424.18,390.88q0-7.07,7.25-7.2l15,0.09q6,0,7.6-3.34a8.73,8.73,0,0,0,.69-3.78,7.09,7.09,0,0,0-.91-4.08,6.8,6.8,0,0,0-3.56-2.08,39.72,39.72,0,0,0-9.72-1.13H416.88q-4.86,0-4.86,5.21v44.66q0.26,7.21-7,7.12t-7.25-7.2v-55q0-8.81,8-9h34.55q18.49,0.22,25.22,9.77a20.13,20.13,0,0,1,3.34,11.76q-0.61,12.5-10.33,14.93,9.72,2.08,10.07,13.54v14q0,7.07-7.25,7.2-7-.13-6.81-7.25l0.13-14.19a8.73,8.73,0,0,0-.69-3.78q-1.61-3.34-7.6-3.34l-14.67,0Q424.18,398,424.18,390.88Z" transform="translate(-40 -113.77)"/>
    <path class="cls-1" d="M533.28,404.43l17.84-46A4.94,4.94,0,0,1,555.5,355l7.29,0.22q3.73,0.09,2.43,4.51l-25.35,62.15q-2.08,4.38-9,4.43t-9.37-4.08l-24.65-62.15q-1.39-4.77,2.43-5.08h7.29a4.83,4.83,0,0,1,4.3,3.34l17.58,46Q530.85,411.85,533.28,404.43Z" transform="translate(-40 -113.77)"/>
    <path class="cls-1" d="M591.27,379.86V362.41q0-7.07,7.25-7.2t7,7.12v56.9q0.26,7.21-7,7.12t-7.25-7.2V379.86Z" transform="translate(-40 -113.77)"/>
    <path class="cls-1" d="M696.6,412q6.16,0.09,6.16,7.2t-6.16,7.2l-29.21,0q-16,0-25.76-9.79t-9.79-25.76q0-16,9.77-25.78t25.65-10L696.6,355q6.16-.09,6.16,7t-6,7l-2.26.17-27.26.09q-9.37.17-15.28,6.18t-5.9,15.34q0,13.5,10.94,18.92a21,21,0,0,0,10.24,2.26Z" transform="translate(-40 -113.77)"/>
    <path class="cls-1" d="M766.82,397.83l-22.92-.09v9.11q0,5.21,4.17,5.12h46.35q6.16,0.09,6.16,7.2t-6.51,7H776.54l-39.23.09q-7.64,0-7.64-8.33V363.45q0-8.33,7.29-8.33l57.46-.09q6.16-.09,6.16,7t-6,7H748.07q-4.17.26-4.17,5.12v9.46h23.22q7.25,0.13,7.25,7.2T766.82,397.83Z" transform="translate(-40 -113.77)"/>
    <path class="cls-1" d="M876.1,383.72q7.59-.17,15,5.23t7.44,15.95a20.13,20.13,0,0,1-3.34,11.76q-6.73,9.55-25.39,9.55H834q-6.51.09-6.51-7t6.16-7.2H870a36.14,36.14,0,0,0,9.9-.91,6.79,6.79,0,0,0,3.56-2.08,7.09,7.09,0,0,0,.91-4.08,8.73,8.73,0,0,0-.69-3.78q-1.61-3.34-7.6-3.34l-26.13,0q-7.6.17-15-5.23t-7.44-15.95a20.13,20.13,0,0,1,3.34-11.76q6.73-9.55,25.09-9.55l33.2-.13h2.78q6.51-.26,6.51,6.86t-6,7H855.79a46.3,46.3,0,0,0-9.63,1.39,6.79,6.79,0,0,0-3.56,2.08,7.08,7.08,0,0,0-.91,4.08,8.71,8.71,0,0,0,.69,3.78q1.61,3.34,7.6,3.34l11.89-.09Z" transform="translate(-40 -113.77)"/>
  </g>
</svg>
