<?xml version="1.0" encoding="utf-8"?>
<!-- Generator: Adobe Illustrator 19.2.1, SVG Export Plug-In . SVG Version: 6.00 Build 0)  -->
<svg version="1.1" id="Capa_1" xmlns="http://www.w3.org/2000/svg" xmlns:xlink="http://www.w3.org/1999/xlink" x="0px" y="0px"
	 viewBox="0 0 512 512" style="enable-background:new 0 0 512 512;" xml:space="preserve">
<style type="text/css">
	.st0{fill:#323E48;}
	.st1{fill:#C1433C;}
</style>
<path class="st0" d="M447.5,425.7C487.6,380.5,512,321.1,512,256c0-67.7-26.4-129.3-69.5-175.1l0,0c0-0.1-0.1-0.1-0.1-0.1
	C397.6,33.1,334.7,2.6,264.9,0.2l0,0l-5-0.1C258.6,0,257.3,0,256,0c-1.3,0-2.6,0-3.9,0.1l-5,0.1l0,0C177.3,2.6,114.5,33.1,69.6,80.8
	l-0.1,0.1l0,0C26.4,126.7,0,188.3,0,256c0,65.1,24.4,124.5,64.5,169.7c0.1,0.1,0.1,0.2,0.1,0.2c0.2,0.2,0.4,0.3,0.6,0.5
	c45.1,50.4,109.7,82.8,181.9,85.3l0,0l5,0.1c1.3,0,2.6,0.1,3.9,0.1c1.3,0,2.6,0,3.9-0.1l5-0.1l0,0c72.3-2.5,137-35,182.1-85.5
	c0.1-0.2,0.3-0.2,0.4-0.4C447.4,425.9,447.4,425.8,447.5,425.7z M17.9,264.8h106c1,37.4,8.3,73.8,21.3,107.8
	c-25.1,9.1-49.1,21.3-71.6,36.5C40.5,369.8,19.9,319.6,17.9,264.8z M78.4,97.3c22,14.3,45.3,25.7,69.7,34.3
	c-14.9,36.3-23.2,75.3-24.3,115.6h-106C20,189.7,42.5,137.4,78.4,97.3z M494.1,247.2h-106c-1.1-40.3-9.3-79.3-24.3-115.6
	c24.4-8.5,47.8-20,69.7-34.3C469.5,137.4,492,189.7,494.1,247.2z M247.2,132.1c-25.5-0.7-50.6-4.5-74.8-11.3
	c17.9-36.7,43.2-69.8,74.8-97.4V132.1z M247.2,149.7v97.4H141.5c1.1-38.4,9.1-75.6,23.5-110.1C191.6,144.7,219.1,149,247.2,149.7z
	 M264.8,149.7c28.1-0.8,55.6-5,82.2-12.7c14.4,34.5,22.4,71.7,23.5,110.1H264.8V149.7z M264.8,132.1V23.3
	c31.6,27.6,56.9,60.7,74.8,97.4C315.4,127.6,290.3,131.4,264.8,132.1z M356.7,115.4c-17-35.5-40.5-67.9-69.6-95.6
	c51.7,6.8,98.2,30.1,134,64.6C400.8,97.3,379.2,107.6,356.7,115.4z M155.3,115.4c-22.5-7.8-44.1-18.1-64.4-31
	c35.8-34.5,82.3-57.8,134-64.6C195.8,47.5,172.2,79.9,155.3,115.4z M141.5,264.8h105.7v88.6c-29.2,0.8-57.8,5.3-85.3,13.6
	C149.5,334.8,142.5,300.3,141.5,264.8z M247.2,371.1v117.6c-33.8-29.5-60.4-65.4-78.4-105.2C194.1,376,220.3,371.9,247.2,371.1z
	 M264.8,488.7V371.1c26.8,0.8,53.1,4.9,78.4,12.4C325.2,423.3,298.7,459.1,264.8,488.7z M264.8,353.4v-88.6h105.7
	c-1,35.5-8,69.9-20.4,102.2C322.6,358.8,294,354.2,264.8,353.4z M388.2,264.8h106c-2,54.8-22.6,105-55.7,144.3
	c-22.5-15.2-46.5-27.4-71.6-36.5C379.9,338.6,387.2,302.2,388.2,264.8z M85.5,422.4c20.9-13.9,43.1-25,66.4-33.4
	c17.2,38.5,41.8,73.6,73,103.3C170.6,485.1,122,459.7,85.5,422.4z M287.1,492.3c31.2-29.7,55.8-64.8,73-103.3
	c23.2,8.3,45.5,19.5,66.4,33.4C390,459.7,341.4,485.1,287.1,492.3z"/>
<g>
	<path class="st1" d="M418.1,49.5c0,0.6,0.1,1.2,0.1,1.7C418.1,50.7,418.1,50.1,418.1,49.5z M418.2,52.5c0-0.4,0-0.8,0-1.2
		c0,1.6,0,3.2-0.1,4.8C418.2,54.9,418.2,53.7,418.2,52.5z M418.1,49.5c-0.1-1.7-0.2-3.3-0.5-4.9C417.8,46.3,418,47.9,418.1,49.5z"/>
	<path class="st1" d="M417.6,44.6c-0.1-0.8-0.3-1.7-0.4-2.5c-0.2-0.8-0.4-1.7-0.6-2.5c-0.4-1.6-1-3.3-1.5-4.8
		c-0.3-0.8-0.6-1.6-0.9-2.3c-0.3-0.8-0.7-1.5-1-2.3c-0.4-0.8-0.7-1.5-1.1-2.2c-0.8-1.4-1.6-2.8-2.6-4.2c-0.5-0.7-1-1.4-1.4-2
		c-0.6-0.8-1.2-1.5-1.8-2.2c-0.9-1.1-1.9-2.1-2.8-3.1c-0.2-0.1-0.3-0.2-0.4-0.4c-0.5-0.6-1.1-1.1-1.6-1.6c-3.6-3.3-7.8-6.1-12.3-8.3
		c-0.6-0.3-1.2-0.6-1.8-0.8c-2.1-0.9-4.2-1.7-6.4-2.3c-0.9-0.2-1.8-0.5-2.6-0.7c-2.1-0.5-4.3-0.8-6.5-1c-0.7-0.1-1.4-0.1-2.2-0.2
		c-0.9,0-1.8-0.1-2.8-0.1c-28.4,0-51.3,23-51.3,51.3c0,9.8,2.8,19.5,8.2,27.7L367,153l0.7,1.2l42.3-74l3.7-6.8
		c1-2.1,1.8-4.2,2.4-6.4l0.9-3.6c0.2-1.2,0.4-2.4,0.6-3.6c0.2-1.2,0.3-2.4,0.4-3.6c0.1-1.2,0.1-2.4,0.1-3.7
		C418.2,49.8,418,47.2,417.6,44.6z M366.8,88.8c-10.1,0-19.1-4.1-25.7-10.6c-6.6-6.6-10.6-15.7-10.6-25.7
		c0-20.1,16.3-36.4,36.4-36.4s36.4,16.3,36.4,36.4C403.2,72.6,386.9,88.8,366.8,88.8z"/>
	<path class="st1" d="M385,52.5c0,10-8.1,18.1-18.1,18.1s-18.1-8.1-18.1-18.1s8.1-18.1,18.1-18.1c5,0,9.5,2,12.8,5.3
		C383,42.9,385,47.4,385,52.5z"/>
</g>
<g>
	<path class="st1" d="M184.1,132.1c0,0.6,0.1,1.2,0.1,1.7C184.1,133.3,184.1,132.7,184.1,132.1z M184.2,135c0-0.4,0-0.8,0-1.2
		c0,1.6,0,3.2-0.1,4.8C184.2,137.5,184.2,136.2,184.2,135z M184.1,132.1c-0.1-1.7-0.2-3.3-0.5-4.9
		C183.9,128.8,184,130.4,184.1,132.1z"/>
	<path class="st1" d="M183.6,127.2c-0.1-0.8-0.3-1.7-0.4-2.5c-0.2-0.8-0.4-1.7-0.6-2.5c-0.4-1.6-1-3.3-1.5-4.8
		c-0.3-0.8-0.6-1.6-0.9-2.3c-0.3-0.8-0.7-1.5-1-2.3c-0.4-0.8-0.7-1.5-1.1-2.2c-0.8-1.4-1.6-2.8-2.6-4.2c-0.5-0.7-1-1.4-1.4-2
		c-0.6-0.8-1.2-1.5-1.8-2.2c-0.9-1.1-1.9-2.1-2.8-3.1c-0.2-0.1-0.3-0.2-0.4-0.4c-0.5-0.6-1.1-1.1-1.6-1.6c-3.6-3.3-7.8-6.1-12.3-8.3
		c-0.6-0.3-1.2-0.6-1.8-0.8c-2.1-0.9-4.2-1.7-6.4-2.3c-0.9-0.2-1.8-0.5-2.6-0.7c-2.1-0.5-4.3-0.8-6.5-1c-0.7-0.1-1.4-0.1-2.2-0.2
		c-0.9,0-1.8-0.1-2.8-0.1c-28.4,0-51.3,23-51.3,51.3c0,9.8,2.8,19.5,8.2,27.7l43.2,72.9l0.7,1.2l42.5-74.1l3.7-6.8
		c1-2.1,1.8-4.2,2.4-6.4l0.9-3.6c0.2-1.2,0.4-2.4,0.6-3.6c0.2-1.2,0.3-2.4,0.4-3.6c0.1-1.2,0.1-2.4,0.1-3.7
		C184.2,132.3,184,129.7,183.6,127.2z M132.9,171.4c-10.1,0-19.1-4.1-25.7-10.6c-6.6-6.6-10.6-15.7-10.6-25.7
		c0-20.1,16.3-36.4,36.4-36.4s36.4,16.3,36.4,36.4C169.2,155.1,153,171.4,132.9,171.4z"/>
	<path class="st1" d="M151,135c0,10-8.1,18.1-18.1,18.1s-18.1-8.1-18.1-18.1s8.1-18.1,18.1-18.1c5,0,9.5,2,12.8,5.3
		C149,125.5,151,130,151,135z"/>
</g>
<g>
	<path class="st1" d="M509.5,149.2c0,0.6,0.1,1.2,0.1,1.7C509.5,150.4,509.5,149.8,509.5,149.2z M509.6,152.1c0-0.4,0-0.8,0-1.2
		c0,1.6,0,3.2-0.1,4.8C509.5,154.6,509.6,153.4,509.6,152.1z M509.5,149.2c-0.1-1.7-0.2-3.3-0.5-4.9
		C509.2,145.9,509.4,147.6,509.5,149.2z"/>
	<path class="st1" d="M509,144.3c-0.1-0.8-0.3-1.7-0.4-2.5c-0.2-0.8-0.4-1.7-0.6-2.5c-0.4-1.6-1-3.3-1.5-4.8
		c-0.3-0.8-0.6-1.6-0.9-2.3c-0.3-0.8-0.7-1.5-1-2.3c-0.4-0.8-0.7-1.5-1.1-2.2c-0.8-1.4-1.6-2.8-2.6-4.2c-0.5-0.7-1-1.4-1.4-2
		c-0.6-0.8-1.2-1.5-1.8-2.2c-0.9-1.1-1.9-2.1-2.8-3.1c-0.2-0.1-0.3-0.2-0.4-0.4c-0.5-0.6-1.1-1.1-1.6-1.6c-3.6-3.3-7.8-6.1-12.3-8.3
		c-0.6-0.3-1.2-0.6-1.8-0.8c-2.1-0.9-4.2-1.7-6.4-2.3c-0.9-0.2-1.8-0.5-2.6-0.7c-2.1-0.5-4.3-0.8-6.5-1c-0.7-0.1-1.4-0.1-2.2-0.2
		c-0.9,0-1.8-0.1-2.8-0.1c-28.4,0-51.3,23-51.3,51.3c0,9.8,2.8,19.5,8.2,27.7l43.2,72.9l0.7,1.2l42.5-74.1l3.7-6.8
		c1-2.1,1.8-4.2,2.4-6.4l0.9-3.6c0.2-1.2,0.4-2.4,0.6-3.6c0.2-1.2,0.3-2.4,0.4-3.6c0.1-1.2,0.1-2.4,0.1-3.7
		C509.6,149.4,509.4,146.8,509,144.3z M458.2,188.5c-10.1,0-19.1-4.1-25.7-10.6c-6.6-6.6-10.6-15.7-10.6-25.7
		c0-20.1,16.3-36.4,36.4-36.4s36.4,16.3,36.4,36.4C494.6,172.2,478.3,188.5,458.2,188.5z"/>
	<path class="st1" d="M476.4,152.1c0,10-8.1,18.1-18.1,18.1s-18.1-8.1-18.1-18.1s8.1-18.1,18.1-18.1c5,0,9.5,2,12.8,5.3
		C474.3,142.6,476.4,147.1,476.4,152.1z"/>
</g>
<g>
	<path class="st1" d="M329.6,159.4c0,0.6,0.1,1.2,0.1,1.7C329.6,160.6,329.6,160,329.6,159.4z M329.7,162.3c0-0.4,0-0.8,0-1.2
		c0,1.6,0,3.2-0.1,4.8C329.7,164.8,329.7,163.5,329.7,162.3z M329.6,159.4c-0.1-1.7-0.2-3.3-0.5-4.9
		C329.4,156.1,329.5,157.7,329.6,159.4z"/>
	<path class="st1" d="M329.1,154.5c-0.1-0.8-0.3-1.7-0.4-2.5c-0.2-0.8-0.4-1.7-0.6-2.5c-0.4-1.6-1-3.3-1.5-4.8
		c-0.3-0.8-0.6-1.6-0.9-2.3c-0.3-0.8-0.7-1.5-1-2.3c-0.4-0.8-0.7-1.5-1.1-2.2c-0.8-1.4-1.6-2.8-2.6-4.2c-0.5-0.7-1-1.4-1.4-2
		c-0.6-0.8-1.2-1.5-1.8-2.2c-0.9-1.1-1.9-2.1-2.8-3.1c-0.2-0.1-0.3-0.2-0.4-0.4c-0.5-0.6-1.1-1.1-1.6-1.6c-3.6-3.3-7.8-6.1-12.3-8.3
		c-0.6-0.3-1.2-0.6-1.8-0.8c-2.1-0.9-4.2-1.7-6.4-2.3c-0.9-0.2-1.8-0.5-2.6-0.7c-2.1-0.5-4.3-0.8-6.5-1c-0.7-0.1-1.4-0.1-2.2-0.2
		c-0.9,0-1.8-0.1-2.8-0.1c-28.4,0-51.3,23-51.3,51.3c0,9.8,2.8,19.5,8.2,27.7l43.2,72.9l0.7,1.2l42.5-74.1l3.7-6.8
		c1-2.1,1.8-4.2,2.4-6.4l0.9-3.6c0.2-1.2,0.4-2.4,0.6-3.6c0.2-1.2,0.3-2.4,0.4-3.6c0.1-1.2,0.1-2.4,0.1-3.7
		C329.7,159.6,329.5,157,329.1,154.5z M278.4,198.7c-10.1,0-19.1-4.1-25.7-10.6c-6.6-6.6-10.6-15.7-10.6-25.7
		c0-20.1,16.3-36.4,36.4-36.4s36.4,16.3,36.4,36.4C314.7,182.4,298.5,198.7,278.4,198.7z"/>
	<path class="st1" d="M296.5,162.3c0,10-8.1,18.1-18.1,18.1s-18.1-8.1-18.1-18.1s8.1-18.1,18.1-18.1c5,0,9.5,2,12.8,5.3
		C294.5,152.8,296.5,157.3,296.5,162.3z"/>
</g>
</svg>
