<?xml version="1.0" encoding="utf-8"?>
<!-- Generator: Adobe Illustrator 19.2.1, SVG Export Plug-In . SVG Version: 6.00 Build 0)  -->
<svg version="1.1" id="Capa_1" xmlns="http://www.w3.org/2000/svg" xmlns:xlink="http://www.w3.org/1999/xlink" x="0px" y="0px"
	 viewBox="0 0 512 512" style="enable-background:new 0 0 512 512;" xml:space="preserve">
<style type="text/css">
	.st0{fill:#323E48;}
	.st1{fill:#C1433C;}
</style>
<path class="st0" d="M355.1,270.8c-5-5-11.7-7.8-18.9-7.8c-1.7,0-3.4,0.2-5.1,0.5L213.7,146l22.8-22.8c3.6-3.6,3.6-9.6,0-13.2
	l-5.8-5.8l86.4-86.4c2.6-2.6,3.4-6.4,2.1-9.9c-1.3-3.4-4.5-5.8-8.1-6C261.6-1.4,213,16.4,177.4,51l-5.8-5.8
	c-1.8-1.8-4.1-2.7-6.6-2.7s-4.9,1-6.6,2.7l-92.7,92.7c-3.6,3.6-3.6,9.6,0,13.2l8.9,8.9l-16.4,16.4l-8.9-8.9c-3.6-3.6-9.6-3.6-13.2,0
	L2.7,200.8C1,202.6,0,204.9,0,207.4s1,4.9,2.7,6.6l64.9,64.9c1.8,1.8,4.2,2.7,6.6,2.7s4.8-0.9,6.6-2.7l33.4-33.4
	c1.8-1.8,2.7-4.1,2.7-6.6s-1-4.9-2.7-6.6l-8.9-8.9l16.4-16.4l8.9,8.9c1.8,1.8,4.1,2.7,6.6,2.7s4.9-1,6.6-2.7l22.8-22.8L284,310.7
	c-1.6,8.4,0.8,17.5,7.3,24L430.6,474c5,5,11.7,7.8,18.9,7.8c7.1,0,13.8-2.8,18.9-7.8l26.1-26.1l0,0c10.4-10.4,10.4-27.3,0-37.8
	L355.1,270.8z M288,20.7l-70.4,70.4l-27-27C217.1,38.5,251.6,23.3,288,20.7z M74.2,259.1l-51.7-51.7l20.2-20.2l51.7,51.7L74.2,259.1
	z M92.1,210.2l-20.6-20.6l16.4-16.4l20.6,20.6L92.1,210.2z M137.2,196.2l-51.7-51.7L165,65l51.7,51.7L137.2,196.2z M200.5,159.2
	l114.2,114.2l-20.8,20.8L179.7,180L200.5,159.2z M481.2,434.6l-26.1,26.1c-1.5,1.5-3.5,2.3-5.7,2.3c-2.1,0-4.2-0.8-5.7-2.3
	L304.5,321.4c-3.1-3.1-3.1-8.2,0-11.3l26.1-26.1c1.5-1.5,3.5-2.3,5.7-2.3c2.1,0,4.2,0.8,5.7,2.3l139.3,139.3
	C484.3,426.4,484.3,431.5,481.2,434.6z"/>
<path class="st1" d="M309.3,211.9c-3.6,3.6-3.6,9.6,0,13.2c3.6,3.6,9.6,3.6,13.2,0l19.9-19.9c23.7-23.7,35.2-55.8,31.5-88.3
	c-2.2-19.4,5.3-38.8,20.1-51.7c4.2-3.7,9-6.8,14-9.2l-7.7,24.6c-3.2,10.2-2.2,21,2.8,30.4s13.3,16.4,23.5,19.6
	c21,6.6,43.5-5.2,50-26.2l7.9-25.4c5.5,9,8.6,19.4,8.8,30.3c0.3,16.3-6,31.7-17.5,43.3c-6.8,6.8-14.8,11.7-23.9,14.6
	c-16.9,5.4-32.3,14.8-44.5,27L358.6,243c-3.6,3.6-3.6,9.6,0,13.2c1.8,1.8,4.2,2.7,6.6,2.7s4.8-0.9,6.6-2.7l48.8-48.8
	c10.1-10.1,22.9-17.9,37-22.4c11.8-3.8,22.6-10.4,31.4-19.2c15.2-15.2,23.3-35.3,23-56.8c-0.3-21.4-9.2-41.3-24.8-56.1
	c-2.3-2.2-5.7-3-8.8-2.2c-3.1,0.8-5.6,3.2-6.5,6.2l-13.1,41.9c-3.5,11.2-15.4,17.5-26.6,14c-5.4-1.7-9.9-5.4-12.5-10.4
	s-3.2-10.8-1.5-16.2l12.9-41.4c1-3.1,0.3-6.5-1.9-8.9c-2.1-2.4-5.4-3.6-8.5-3.1c-14.6,2.4-28,8.7-39,18.4
	c-19.3,17-29.1,42.3-26.3,67.8c3,26.8-6.6,53.4-26.2,73L309.3,211.9z"/>
<path class="st1" d="M263.6,337.9c-23.7,23.7-35.2,55.8-31.5,88.3c2.2,19.4-5.3,38.8-20.1,51.7c-4.2,3.7-9,6.8-14,9.2l7.7-24.6
	c3.2-10.2,2.2-21-2.8-30.4s-13.3-16.4-23.5-19.6s-21-2.2-30.4,2.8s-16.4,13.3-19.6,23.5l-7.9,25.4c-5.6-9-8.6-19.4-8.8-30.3
	c-0.3-16.3,6-31.7,17.5-43.3c6.8-6.8,14.8-11.7,23.9-14.6c16.9-5.4,32.3-14.8,44.5-27l49.6-49.6c3.6-3.6,3.6-9.6,0-13.2
	s-9.6-3.6-13.2,0l-49.6,49.6c-10.1,10.1-22.9,17.9-37,22.4c-11.8,3.8-22.6,10.4-31.4,19.2c-15.2,15.2-23.3,35.3-23,56.8
	c0.3,21.4,9.2,41.4,24.8,56.1c2.3,2.2,5.7,3,8.8,2.2s5.6-3.2,6.5-6.2l13.1-41.9c1.7-5.4,5.4-9.9,10.4-12.5s10.8-3.2,16.2-1.5
	s9.9,5.4,12.5,10.4s3.2,10.8,1.5,16.2l-12.9,41.4c-1,3.1-0.3,6.5,1.9,8.9c1.8,2.1,4.4,3.2,7,3.2c0.5,0,1,0,1.5-0.1
	c14.6-2.4,28-8.7,39-18.4c19.3-17,29.1-42.3,26.3-67.8c-3-26.8,6.6-53.4,26.2-73c3.6-3.6,3.6-9.6,0-13.2
	C273.2,334.3,267.3,334.3,263.6,337.9z"/>
</svg>
