<?xml version="1.0" encoding="utf-8"?>
<!-- Generator: Adobe Illustrator 19.2.1, SVG Export Plug-In . SVG Version: 6.00 Build 0)  -->
<svg version="1.1" id="Layer_1" xmlns="http://www.w3.org/2000/svg" xmlns:xlink="http://www.w3.org/1999/xlink" x="0px" y="0px"
	 viewBox="0 0 512 512" style="enable-background:new 0 0 512 512;" xml:space="preserve">
<style type="text/css">
	.st0{fill:#323E48;}
	.st1{fill:#C1433C;}
</style>
<path class="st0" d="M503.8,0H396.3c-4.5,0-8.2,3.7-8.2,8.2s3.6,8.2,8.2,8.2h99.4v231.5h-60.2c1.1-4.4,1.6-9,1.6-13.6
	c0-31.5-25.7-57.2-57.2-57.2s-57.2,25.7-57.2,57.2c0,4.6,0.6,9.2,1.6,13.6h-60.2V176c0-2.8-1.5-5.5-3.9-6.9
	c-2.4-1.5-5.4-1.6-7.9-0.4c-5.7,2.8-11.8,4.3-18.1,4.3c-22.5,0-40.9-18.3-40.9-40.8s18.3-40.9,40.9-40.9c6.3,0,12.4,1.4,18.1,4.3
	c2.5,1.3,5.5,1.1,7.9-0.4s3.9-4.1,3.9-7V16.3h99.4c4.5,0,8.2-3.7,8.2-8.2S368.1,0,363.6,0H8.2C3.7,0,0,3.7,0,8.2v495.7
	c0,4.5,3.7,8.2,8.2,8.2h495.7c4.5,0,8.2-3.7,8.2-8.2V8.2C512,3.7,508.3,0,503.8,0z M16.3,16.3h231.5v60.2c-4.4-1.1-9-1.6-13.6-1.6
	c-31.5,0-57.2,25.7-57.2,57.2s25.7,57.2,57.2,57.2c4.6,0,9.2-0.6,13.6-1.6v60.2H176c-2.8,0-5.5,1.5-6.9,3.9
	c-1.5,2.4-1.6,5.4-0.4,7.9c2.8,5.7,4.3,11.8,4.3,18.1c0,22.5-18.3,40.9-40.8,40.9s-40.9-18.3-40.9-40.9c0-6.3,1.4-12.4,4.3-18.1
	c1.3-2.5,1.1-5.5-0.4-7.9s-4.1-3.9-7-3.9H16.3V16.3z M251.7,416.9c-2.4,1.5-3.9,4.1-3.9,7v71.8H16.3V264.2h60.2
	c-1.1,4.4-1.6,9-1.6,13.6c0,31.5,25.7,57.2,57.2,57.2s57.2-25.7,57.2-57.2c0-4.6-0.6-9.2-1.6-13.6h60.2V336c0,2.8,1.5,5.5,3.9,6.9
	c2.4,1.5,5.4,1.6,7.9,0.4c5.7-2.8,11.8-4.3,18.1-4.3c22.5,0,40.9,18.3,40.9,40.8s-18.3,40.9-40.9,40.9c-6.3,0-12.4-1.4-18.1-4.3
	C257.1,415.2,254.1,415.4,251.7,416.9z M495.7,495.7H264.2v-60.2c4.4,1.1,9,1.6,13.6,1.6c31.5,0,57.2-25.7,57.2-57.2
	s-25.7-57.2-57.2-57.2c-4.6,0-9.2,0.6-13.6,1.6v-60.2H336c2.8,0,5.5-1.5,6.9-3.9c1.5-2.4,1.6-5.4,0.4-7.9
	c-2.8-5.7-4.3-11.8-4.3-18.1c0-22.5,18.3-40.9,40.8-40.9s40.9,18.3,40.9,40.9c0,6.3-1.4,12.4-4.3,18.1c-1.3,2.5-1.1,5.5,0.4,7.9
	s4.1,3.9,7,3.9h71.8v231.6H495.7z"/>
<path class="st1" d="M495.7,264.2v231.5H264.2v-60.2c4.4,1.1,9,1.6,13.6,1.6c31.5,0,57.2-25.7,57.2-57.2s-25.7-57.2-57.2-57.2
	c-4.6,0-9.2,0.6-13.6,1.6v-60.2H336c2.8,0,5.5-1.5,6.9-3.9c1.5-2.4,1.6-5.4,0.4-7.9c-2.8-5.7-4.3-11.8-4.3-18.1
	c0-22.5,18.3-40.9,40.8-40.9s40.9,18.3,40.9,40.9c0,6.3-1.4,12.4-4.3,18.1c-1.3,2.5-1.1,5.5,0.4,7.9s4.1,3.9,7,3.9h71.9V264.2z"/>
</svg>
