<?xml version="1.0" encoding="utf-8"?>
<!-- Generator: Adobe Illustrator 19.2.1, SVG Export Plug-In . SVG Version: 6.00 Build 0)  -->
<svg version="1.1" id="Capa_1" xmlns="http://www.w3.org/2000/svg" xmlns:xlink="http://www.w3.org/1999/xlink" x="0px" y="0px"
	 viewBox="0 0 512 512" style="enable-background:new 0 0 512 512;" xml:space="preserve">
<style type="text/css">
	.st0{fill:#323E48;}
	.st1{fill:#C1433C;}
</style>
<polygon class="st0" points="63.8,120.2 35.5,501.1 0,501.1 26.4,179.5 "/>
<polygon class="st0" points="467.4,182.2 488.3,501.1 512,501.1 489.7,224.1 "/>
<path class="st1" d="M172.2,83.8L103,501.1h148.5V10.9L172.2,83.8z M236.9,422.7l-111.8,41.9l6.4-43.7L237,378.1L236.9,422.7
	L236.9,422.7z M236.9,357.1L133,399.9l6.4-43.7l97.5-43.7V357.1z M236.9,291.5l-94.3,41l6.4-43.7l87.9-41.9V291.5z M236.9,226.8
	L154,269.7l6.4-43.7l76.5-43.7V226.8L236.9,226.8z M236.9,160.3L163.6,204l6.4-43.7l67-44.7L236.9,160.3L236.9,160.3z M236.9,95.7
	l-63.8,42.8l9.1-42.8L236.9,51V95.7z"/>
<path class="st1" d="M323.4,65.6l-63.8-54.7V501h143.9L323.4,65.6z M268.8,51l47.4,33.7l8.7,39.2l-56-32.8L268.8,51L268.8,51z
	 M268.8,115.7l56,27.1l6.8,37.6l-62.8-24.6V115.7L268.8,115.7z M268.8,180.4l62.8,23.7l8.6,41l-71.5-24.6v-40.1H268.8z M268.8,245
	l71.5,24.6l9.2,48l-80.6-28L268.8,245L268.8,245z M268.8,309.7l82.9,29.6l9,44.8l-91.8-30.9L268.8,309.7L268.8,309.7z M268.8,374.4
	l91.9,33.3l10.3,41.8l-102.2-30.6V374.4L268.8,374.4z"/>
<path class="st0" d="M71.1,123.9L41.9,501.1h54.7l7.5-46.5l-50.4-13.2l1.8-21.4l51.7,15.8l2.4-14.8l-53.1-15.4l1.8-21.4l54.3,18.2
	l2.4-15l-56.2-16.5l1.8-21.4L118,369l2.5-15.2L62,335.7l1.8-21.4l59.7,21.2l2.5-15.4l-62.2-19.7l1.8-21.4l61.9,22.6v9.2l11.9-72.9
	v-84.7L71.1,123.9z M128.9,285.6l-61-21.9l1.8-21.4l59.2,24.2V285.6z M130.3,250.5L71,229.2l1.8-21.4l57.5,23.6V250.5z M131.6,215.5
	L74.3,195l1.8-21.4l55.6,22.8L131.6,215.5L131.6,215.5z M133,180.4l-57.4-20.5l1.8-21.4l55.6,22.8V180.4L133,180.4z"/>
<path class="st0" d="M462.8,177.6L394.5,205l-11.8,147.6l6.4,31.4l76.1-18.8l1.4,24.8l-73.1,15.7l3.1,15.3l70.9-14.1l2.2,26.7
	l-68.6,9.6l11.7,57.9h67.4L462.8,177.6z M400.6,219.8l56-20.6l1,23.5L399,240.4L400.6,219.8z M397.5,252.7l61.9-19.2l1.2,21.1
	L396,273.2L397.5,252.7z M394.5,285.5l66.2-20.6l1,22.3L393,306.1L394.5,285.5z M391.4,318.3l71.2-20.6l0.8,22.7l-73.6,18.5
	L391.4,318.3z M386.9,371.7l1.5-20.6l75.1-20.6l1.6,21.7L386.9,371.7z"/>
</svg>
