<?xml version="1.0" encoding="utf-8"?>
<!-- Generator: Adobe Illustrator 19.2.1, SVG Export Plug-In . SVG Version: 6.00 Build 0)  -->
<svg version="1.1" id="Capa_1" xmlns="http://www.w3.org/2000/svg" xmlns:xlink="http://www.w3.org/1999/xlink" x="0px" y="0px"
	 viewBox="0 0 512 512" style="enable-background:new 0 0 512 512;" xml:space="preserve">
<style type="text/css">
	.st0{fill:#323E48;}
	.st1{fill:#C1433C;}
</style>
<path class="st0" d="M464.5,133.3l-22.1,22.1c17.5,31.5,27.5,67.8,27.5,106.5c0,121.2-98.6,219.8-219.8,219.8S30.3,383.1,30.3,261.9
	S128.9,42.1,250.1,42.1c38.6,0,74.9,10,106.5,27.5l22.1-22.1c-37.6-22.7-81.6-35.7-128.6-35.7C112.2,11.8,0,124,0,261.9
	S112.2,512,250.1,512s250.1-112.2,250.1-250.1C500.2,214.9,487.1,170.9,464.5,133.3z M328.4,237.3l-26.6,26.5
	c-1,27.7-23.7,49.9-51.7,49.9c-28.6,0-51.8-23.2-51.8-51.8c0-28,22.1-50.7,49.9-51.7l26.6-26.5c-7.8-2.5-16.1-3.9-24.7-3.9
	c-45.2,0-82.1,36.8-82.1,82.1s36.8,82.1,82.1,82.1s82.1-36.8,82.1-82.1C332.2,253.3,330.9,245,328.4,237.3z M389.8,175.8l-22.1,22.1
	c10.4,19.1,16.3,40.8,16.3,64c0,73.8-60.1,133.9-133.9,133.9s-133.9-60.1-133.9-133.9S176.3,128,250.1,128c23.2,0,44.9,5.9,64,16.3
	l22.1-22.1c-25.1-15.5-54.6-24.5-86.2-24.5c-90.6,0-164.2,73.7-164.2,164.2S159.5,426.1,250,426.1s164.2-73.7,164.2-164.2
	C414.3,230.3,405.3,200.8,389.8,175.8z"/>
<path class="st1" d="M512,53.6L431.6,134l-28.9-3.2L260.1,273.3c-5.9,5.9-15.5,5.9-21.4,0s-5.9-15.5,0-21.4l142.5-142.5l-3.2-29
	L458.4,0l10.7,42.9L512,53.6z"/>
</svg>
