<?xml version="1.0" encoding="utf-8"?>
<!-- Generator: Adobe Illustrator 19.2.1, SVG Export Plug-In . SVG Version: 6.00 Build 0)  -->
<svg version="1.1" id="Layer_1" xmlns="http://www.w3.org/2000/svg" xmlns:xlink="http://www.w3.org/1999/xlink" x="0px" y="0px"
	 viewBox="0 0 512 512" style="enable-background:new 0 0 512 512;" xml:space="preserve">
<style type="text/css">
	.st0{fill:#323E48;}
	.st1{fill:#C1433C;}
</style>
<g>
	<g>
		<g>
			<path class="st0" d="M510.7,210.5l-97.3-161C404.1,34.1,382.7,22,364.7,22h-216c-18,0-39.4,12-48.8,27.4L1.3,210
				c-1.3,2-1.6,4.5-1.1,6.8c0.6,2.3,2,4.3,4.1,5.6l84.9,51c2,1.2,4.5,1.6,6.8,1s4.3-2.1,5.5-4.1l11.2-18.6V481c0,5,4,9,9,9h270
				c5,0,9-4,9-9V254.6l9.7,16.2c2.6,4.3,8.1,5.6,12.4,3.1l84.9-51c2-1.2,3.5-3.2,4.1-5.5C512.3,215,511.9,212.6,510.7,210.5z
				 M319.1,40c-4.4,30.5-30.7,54-62.3,54s-58-23.5-62.3-54C194.4,40,319.1,40,319.1,40z M90.8,253.4l-69.4-41.7l6.4-10.5L96.4,244
				L90.8,253.4z M382.7,472h-252v-18h252V472L382.7,472z M406.5,229.4l-7.1-11.8c-2.1-3.5-6.2-5.1-10.1-4s-6.6,4.6-6.6,8.7V436h-252
				V219.3c0-4-2.7-7.6-6.6-8.7c-3.9-1.1-8,0.6-10.1,4l-8.3,13.9l-68.4-42.7l78-127.1c6.1-10,21.8-18.8,33.5-18.8h27.5
				c4.5,40.4,38.9,72,80.5,72s76-31.6,80.5-72h27.5c11.9,0,27.1,8.6,33.3,18.8l77.2,127.7L406.5,229.4z M421.2,253.8l-5.4-9
				l68.7-42.9l6.2,10.2L421.2,253.8z"/>
		</g>
	</g>
	<path class="st1" d="M365,233.7l-52.2,50.8l12.3,71.8c0.3,1.5-0.4,3-1.6,3.9s-2.9,1-4.2,0.3l-64.5-33.9l-64.5,33.9
		c-0.6,0.3-1.2,0.5-1.9,0.5c-0.8,0-1.6-0.3-2.3-0.8c-1.2-0.9-1.8-2.4-1.6-3.9l12.3-71.8l-52.2-50.8c-1.1-1.1-1.5-2.6-1-4.1
		s1.7-2.5,3.2-2.7l72.1-10.5l32.2-65.3c0.7-1.4,2.1-2.2,3.6-2.2c0.8,0,1.5,0.2,2.1,0.6c0.6,0.4,1.1,0.9,1.5,1.6l32.2,65.3l72.1,10.5
		c1.5,0.2,2.8,1.3,3.2,2.7C366.5,231,366.1,232.6,365,233.7z"/>
</g>
</svg>
