<?xml version="1.0" encoding="utf-8"?>
<!-- Generator: Adobe Illustrator 19.2.1, SVG Export Plug-In . SVG Version: 6.00 Build 0)  -->
<svg version="1.1" id="Capa_1" xmlns="http://www.w3.org/2000/svg" xmlns:xlink="http://www.w3.org/1999/xlink" x="0px" y="0px"
	 viewBox="0 0 512 512" style="enable-background:new 0 0 512 512;" xml:space="preserve">
<style type="text/css">
	.st0{fill:#323E48;}
	.st1{fill:#C1433C;}
</style>
<path class="st0" d="M374.9,107.8c7.3-10.5,11.3-22.9,11.3-36c0-16.8-6.5-32.6-18.4-44.5c-24.5-24.5-64.4-24.5-88.9,0l-25.4,25.4
	l-25.4-25.4c-24.5-24.5-64.4-24.5-88.9,0c-11.8,11.8-18.4,27.6-18.4,44.5c0,13.1,4,25.5,11.3,36H0v125.8h44.9V503h431.2V233.6H512
	V107.8H374.9z M266.3,65.5L291.7,40c17.5-17.5,46-17.5,63.5,0c8.4,8.5,13.1,19.7,13.1,31.8s-4.7,23.3-13.1,31.8l-4.2,4.2H224
	L266.3,65.5z M152,40c17.5-17.5,46-17.5,63.5,0l25.4,25.4l-31.8,31.8c-1.9,1.9-3.6,4-5.2,6.2c-0.5,0.7-1,1.4-1.4,2.1
	c-0.5,0.8-1.1,1.5-1.6,2.3h-44.7l-4.2-4.2c-8.4-8.4-13.1-19.7-13.1-31.8S143.5,48.5,152,40z M251.5,485.1H62.9V359.3h188.6V485.1z
	 M251.5,341.3H62.9V233.6h188.6V341.3z M251.5,215.6H18v-89.8h233.5V215.6z M458.1,485.1H269.5V359.3h188.6V485.1z M458.1,341.3
	H269.5V233.6h188.6V341.3z M494,215.6H269.5v-89.8H494V215.6z"/>
<rect x="269.5" y="125.8" class="st1" width="224.6" height="89.8"/>
<rect x="18" y="125.8" class="st1" width="233.5" height="89.8"/>
</svg>
