<?xml version="1.0" encoding="utf-8"?>
<!-- Generator: Adobe Illustrator 19.2.1, SVG Export Plug-In . SVG Version: 6.00 Build 0)  -->
<svg version="1.1" id="Layer_1" xmlns="http://www.w3.org/2000/svg" xmlns:xlink="http://www.w3.org/1999/xlink" x="0px" y="0px"
	 viewBox="0 0 512 512" style="enable-background:new 0 0 512 512;" xml:space="preserve">
<style type="text/css">
	.st0{fill:#323E48;}
	.st1{fill:#C1433C;}
</style>
<path class="st0" d="M503.2,282.5h-17.7V158.9c0-4.9-4-8.8-8.8-8.8H353.1V35.3c0-4.9-4-8.8-8.8-8.8H167.7c-4.9,0-8.8,4-8.8,8.8
	v114.8H17.7c-4.9,0-8.8,4-8.8,8.8v123.6c-4.9,0-8.8,4-8.8,8.8v185.4c0,4.9,4,8.8,8.8,8.8h158.9h176.6h158.9c4.9,0,8.8-4,8.8-8.8
	V291.3C512,286.4,508,282.5,503.2,282.5z M176.6,44.1h158.9v105.9H176.6V44.1z M26.5,167.7h141.2h176.6h123.6v114.8H26.5V167.7z
	 M335.4,467.9H176.6V335.4h158.9L335.4,467.9L335.4,467.9z M494.3,467.9H353.1V326.6c0-4.9-4-8.8-8.8-8.8H167.7
	c-4.9,0-8.8,4-8.8,8.8v141.2H17.7V300.1h459h17.7V467.9z"/>
<path class="st0" d="M132.4,185.4H61.8c-4.9,0-8.8,4-8.8,8.8V256c0,4.9,4,8.8,8.8,8.8h70.6c4.9,0,8.8-4,8.8-8.8v-61.8
	C141.2,189.3,137.3,185.4,132.4,185.4z M123.6,247.2h-53V203h53L123.6,247.2L123.6,247.2z"/>
<path class="st0" d="M238.3,185.4h-70.6c-4.9,0-8.8,4-8.8,8.8V256c0,4.9,4,8.8,8.8,8.8h70.6c4.9,0,8.8-4,8.8-8.8v-61.8
	C247.2,189.3,243.2,185.4,238.3,185.4z M229.5,247.2h-53V203h53V247.2z"/>
<path class="st0" d="M344.3,185.4h-70.6c-4.9,0-8.8,4-8.8,8.8V256c0,4.9,4,8.8,8.8,8.8h70.6c4.9,0,8.8-4,8.8-8.8v-61.8
	C353.1,189.3,349.2,185.4,344.3,185.4z M335.4,247.2h-53V203h53V247.2z"/>
<path class="st0" d="M450.2,185.4h-70.6c-4.9,0-8.8,4-8.8,8.8V256c0,4.9,4,8.8,8.8,8.8h70.6c4.9,0,8.8-4,8.8-8.8v-61.8
	C459,189.3,455.1,185.4,450.2,185.4z M441.4,247.2h-53V203h53V247.2z"/>
<path class="st1" d="M287.9,90.7L272.2,106l3.7,21.6c0.1,0.5-0.1,0.9-0.5,1.2c-0.4,0.3-0.9,0.3-1.3,0.1l-19.4-10.2l-19.4,10.2
	c-0.2,0.1-0.4,0.2-0.6,0.2c-0.2,0-0.5-0.1-0.7-0.2c-0.4-0.3-0.5-0.7-0.5-1.2l3.7-21.6l-15.7-15.3c-0.3-0.3-0.5-0.8-0.3-1.2
	c0.2-0.5,0.5-0.8,1-0.8l21.7-3.2l9.7-19.7c0.2-0.4,0.6-0.7,1.1-0.7c0.2,0,0.5,0.1,0.6,0.2c0.2,0.1,0.3,0.3,0.5,0.5l9.7,19.7
	l21.7,3.2c0.5,0.1,0.8,0.4,1,0.8C288.4,89.9,288.3,90.4,287.9,90.7z"/>
</svg>
