<?xml version="1.0" encoding="utf-8"?>
<!-- Generator: Adobe Illustrator 19.2.1, SVG Export Plug-In . SVG Version: 6.00 Build 0)  -->
<svg version="1.1" id="Capa_1" xmlns="http://www.w3.org/2000/svg" xmlns:xlink="http://www.w3.org/1999/xlink" x="0px" y="0px"
	 viewBox="0 0 512 512" style="enable-background:new 0 0 512 512;" xml:space="preserve">
<style type="text/css">
	.st0{fill:#323E48;}
	.st1{fill:#C1433C;}
</style>
<g>
	<path class="st0" d="M370.1,0H141.9c-19,0-34.6,15.6-34.6,34.6v442.8c0,19,15.6,34.5,34.6,34.6h228.2c19,0,34.6-15.6,34.6-34.6
		V34.6C404.7,15.6,389.1,0,370.1,0z M219.5,24.9h73c2.3,0,4.2,1.9,4.2,4.2c0,2.3-1.9,4.2-4.2,4.2h-73c-2.3,0-4.2-1.9-4.2-4.2
		C215.3,26.8,217.2,24.9,219.5,24.9z M380.6,412.6l-56.3-97.4c16.9-25.7,19.3-59.6,2.9-88.1c-16.4-28.5-47-43.3-77.7-41.6l31.2,54
		c10.4,18,4.2,41-13.8,51.4c-18,10.4-41,4.2-51.4-13.8l-31.2-54.1c-16.9,25.7-19.3,59.6-2.8,88.1c16.4,28.5,47,43.3,77.7,41.6
		l55,95.2H131.3V54.8h249.3L380.6,412.6z"/>
	<path class="st1" d="M296.7,29.1c0,2.3-1.9,4.2-4.2,4.2h-73c-2.3,0-4.2-1.9-4.2-4.2c0-2.3,1.9-4.2,4.2-4.2h73
		C294.8,24.9,296.7,26.8,296.7,29.1z"/>
</g>
</svg>
