<?xml version="1.0" encoding="utf-8"?>
<!-- Generator: Adobe Illustrator 19.2.1, SVG Export Plug-In . SVG Version: 6.00 Build 0)  -->
<svg version="1.1" id="Capa_1" xmlns="http://www.w3.org/2000/svg" xmlns:xlink="http://www.w3.org/1999/xlink" x="0px" y="0px"
	 viewBox="0 0 512 512" style="enable-background:new 0 0 512 512;" xml:space="preserve">
<style type="text/css">
	.st0{fill:#C1433C;}
	.st1{fill:#323E48;}
</style>
<g>
	<path class="st0" d="M337,371.8l-65.3-64.5c-4.1-4.1-9.8-6.4-15.5-6.4h-32.9v-12.3c0-9.2-7.5-16.6-16.7-16.6h-190
		C7.4,272,0,279.4,0,288.6v111.1h343.5v-12.1C343.5,381.6,341.2,375.9,337,371.8z M308.6,373.9h-63.2c-1.4,0-2.6-1.1-2.6-2.6v-48.8
		c0-1.4,1.1-2.6,2.6-2.6h12c0.6,0,1.4,0.3,1.9,0.7l51.1,48.8C312.1,371.1,310.9,373.9,308.6,373.9z M0,408.8v36.8
		c0,9.2,7.4,16.6,16.6,16.6h22.3c3.2-22,22.2-39,45.1-39s41.8,16.9,45.1,39H219c3.2-22,22.2-39,45-39c22.9,0,41.9,16.9,45.1,39H327
		c9.2,0,16.6-7.4,16.6-16.6v-36.8H0z M264.1,434.3c-19,0-34.5,15.4-34.5,34.4s15.4,34.5,34.5,34.5s34.4-15.5,34.4-34.5
		C298.5,449.7,283.1,434.3,264.1,434.3z M264.1,486c-9.5,0-17.2-7.7-17.2-17.2s7.7-17.2,17.2-17.2s17.2,7.8,17.2,17.2
		C281.3,478.3,273.6,486,264.1,486z M83.9,434.3c-19,0-34.5,15.4-34.5,34.4s15.5,34.5,34.5,34.5s34.4-15.5,34.4-34.5
		C118.3,449.7,102.9,434.3,83.9,434.3z M83.9,486c-9.5,0-17.2-7.7-17.2-17.2s7.7-17.2,17.2-17.2s17.2,7.8,17.2,17.2
		C101.2,478.3,93.4,486,83.9,486z"/>
	<path class="st1" d="M512,220.8c0,94.3-61.8,174.3-147.1,201.8v-30.2c69.2-26.3,118.6-93.3,118.6-171.6
		c0-101.2-82.3-183.5-183.5-183.5s-183.5,82.3-183.5,183.5c0,10.2,0.9,20.1,2.5,29.8H90.2c-1.4-9.7-2.1-19.7-2.1-29.8
		c0-116.9,95.1-212,212-212C416.9,8.8,512,103.9,512,220.8z"/>
	<path class="st1" d="M396.7,272.2l-68.8-54.8c-0.6-5.1-2.6-9.8-5.5-13.7l20.5-127.3c0.8-4.7-2.3-9.3-7-10.3h-0.2
		c-4.7-1.1-9.4,1.6-10.8,6.2l-37.4,123.4c-9.2,4.6-15.6,14.1-15.6,25.1c0,15.5,12.6,28.2,28.1,28.2c2.9,0,5.6-0.6,8.3-1.4l78.1,40.6
		c4.3,2.2,9.6,0.8,12.2-3.2l0.1-0.2C401.4,280.7,400.5,275.3,396.7,272.2z M300,234.7c-7.7,0-13.9-6.2-13.9-13.9s6.2-13.9,13.9-13.9
		c7.7,0,13.9,6.2,13.9,13.9C314,228.4,307.7,234.7,300,234.7z"/>
</g>
</svg>
