<?xml version="1.0" encoding="utf-8"?>
<!-- Generator: Adobe Illustrator 19.2.1, SVG Export Plug-In . SVG Version: 6.00 Build 0)  -->
<svg version="1.1" id="Capa_1" xmlns="http://www.w3.org/2000/svg" xmlns:xlink="http://www.w3.org/1999/xlink" x="0px" y="0px"
	 viewBox="0 0 512 512" style="enable-background:new 0 0 512 512;" xml:space="preserve">
<style type="text/css">
	.st0{fill:#323E48;}
	.st1{fill:#C1433C;}
	.st2{enable-background:new    ;}
</style>
<g>
	<path class="st0" d="M493.1,126.6l-95.8-31.5l0,0c0,0-1.1-0.4-2.7-0.4c-0.3,0-0.7,0-1,0.1c-2.1,0.2-3.7,1.3-3.7,1.3l-53.7,35.1
		c-2.4,1.6-3.9,4.3-3.9,7.2v96l-3-0.2V79c0-3.7-2.4-7-5.9-8.2l-173.6-57c0,0-2-0.6-3.9-0.3c-2.2,0.4-3.8,1.5-3.8,1.5L15.3,105.5
		c-2.3,1.6-3.6,4.2-3.6,7v321.3c0,3.1,1.7,6,4.5,7.5l127,69.6c0,0,1.3,0.8,3.1,1c1.8,0.2,3.1-0.2,3.1-0.2L323,467.9l73.8-18.6
		l95.8-24.2c3.8-1,6.5-4.4,6.5-8.3v-282C499,131,496.6,127.7,493.1,126.6z M76.2,98.8c0-1,0.5-1.9,1.3-2.4l10.7-6.7
		c0.9-0.5,2-0.6,2.9-0.1s1.5,1.5,1.5,2.5v29.2c0,1.1-0.6,2-1.5,2.5l-10.7,5.7c-0.4,0.2-0.9,0.3-1.3,0.3c-0.5,0-1-0.1-1.5-0.4
		c-0.9-0.5-1.4-1.4-1.4-2.5V98.8z M76.2,155.3c0-1.1,0.7-2.2,1.7-2.6l10.7-4.7c0.9-0.4,1.9-0.3,2.7,0.2c0.8,0.5,1.3,1.4,1.3,2.4
		v29.2c0,1.2-0.8,2.3-1.9,2.7L80,186.3c-0.3,0.1-0.6,0.2-1,0.2c-0.6,0-1.2-0.2-1.6-0.5c-0.8-0.5-1.2-1.4-1.2-2.3V155.3z M76.2,211.8
		c0-1.3,0.9-2.4,2.1-2.8l10.7-2.8c0.9-0.2,1.8,0,2.5,0.5s1.1,1.4,1.1,2.3v29.2l0,0c0,1.4-1,2.6-2.4,2.8l-10.7,1.9
		c-0.2,0-0.3,0-0.5,0c-0.7,0-1.3-0.2-1.8-0.7c-0.6-0.6-1-1.3-1-2.2C76.2,240,76.2,211.8,76.2,211.8z M36.3,395.6
		c-0.5,0.3-1.1,0.5-1.6,0.5c-0.3,0-0.7-0.1-1-0.2l-7.4-2.7c-1.1-0.4-1.9-1.5-1.9-2.7v-23.6c0-0.9,0.4-1.7,1.1-2.3
		c0.7-0.6,1.6-0.7,2.5-0.5l7.4,2.1c1.2,0.4,2.1,1.5,2.1,2.8v24.3l0,0C37.6,394.2,37.1,395.1,36.3,395.6z M36.5,346.9
		c-0.5,0.4-1.2,0.7-1.8,0.7c-0.2,0-0.4,0-0.5,0l-7.4-1.4c-1.4-0.3-2.3-1.4-2.3-2.8v-23.6c0-0.8,0.3-1.6,0.9-2.1s1.4-0.8,2.2-0.7
		l7.4,0.7c1.5,0.1,2.6,1.4,2.6,2.9v24.3l0,0C37.6,345.6,37.2,346.4,36.5,346.9z M37.6,296.2c0,0.8-0.3,1.5-0.8,2s-1.3,0.8-2,0.8l0,0
		l-7.4-0.1c-1.6,0-2.9-1.3-2.9-2.9v-23.6c0-1.5,1.2-2.7,2.6-2.9l7.4-0.6c0.8-0.1,1.6,0.2,2.2,0.7c0.6,0.6,0.9,1.3,0.9,2.1
		C37.6,271.7,37.6,296.2,37.6,296.2z M35.2,250.6l-7.4,1.3c-0.2,0-0.3,0-0.5,0c-0.7,0-1.3-0.2-1.8-0.7c-0.6-0.6-1-1.3-1-2.2v-23.6
		c0-1.3,0.9-2.4,2.1-2.8l7.4-2c0.9-0.2,1.8,0,2.5,0.5s1.1,1.4,1.1,2.3v24.3l0,0C37.6,249.1,36.5,250.3,35.2,250.6z M37.6,199.2
		c0,1.2-0.8,2.3-1.9,2.7l-7.4,2.6c-0.3,0.1-0.6,0.2-1,0.2c-0.6,0-1.2-0.2-1.6-0.5c-0.8-0.5-1.2-1.4-1.2-2.3v-23.6
		c0-1.1,0.7-2.1,1.7-2.6l7.4-3.3c0.9-0.4,1.9-0.3,2.7,0.2s1.3,1.4,1.3,2.4V199.2z M36,153.3l-7.4,3.9c-0.4,0.2-0.9,0.3-1.3,0.3
		c-0.5,0-1-0.2-1.5-0.4c-0.9-0.5-1.4-1.4-1.4-2.4v-23.6c0-1,0.5-1.9,1.3-2.4l7.4-4.6c0.9-0.6,2-0.6,2.9-0.1s1.5,1.5,1.5,2.5v24.2
		l0,0C37.6,151.8,37,152.8,36,153.3z M61.3,404.8c-0.5,0.3-1.1,0.5-1.6,0.5c-0.3,0-0.7-0.1-1-0.2l-8.8-3.3c-1.1-0.4-1.9-1.5-1.9-2.7
		v-25.7c0-0.9,0.4-1.7,1.1-2.3c0.7-0.5,1.6-0.7,2.5-0.5l8.8,2.5c1.2,0.3,2.1,1.5,2.1,2.8v26.5l0,0C62.6,403.4,62.1,404.3,61.3,404.8
		z M62.6,349.4c0,0.9-0.4,1.7-1,2.2c-0.5,0.4-1.2,0.7-1.8,0.7c-0.2,0-0.4,0-0.5-0.1l-8.8-1.6c-1.4-0.3-2.3-1.4-2.3-2.8v-25.7
		c0-0.8,0.3-1.6,0.9-2.1c0.6-0.5,1.4-0.8,2.2-0.7l8.8,0.9c1.5,0.2,2.6,1.4,2.6,2.9v26.3H62.6z M62.6,296.4c0,0.8-0.3,1.5-0.9,2
		c-0.5,0.5-1.3,0.8-2,0.8l0,0l-8.8-0.1c-1.6,0-2.9-1.3-2.9-2.9v-25.7c0-1.5,1.1-2.7,2.6-2.9l8.8-0.7c0.8-0.1,1.6,0.2,2.2,0.7
		c0.6,0.5,0.9,1.3,0.9,2.1v26.7H62.6z M62.6,243.4c0,1.4-1,2.6-2.4,2.8l-8.8,1.5c-0.2,0-0.3,0-0.5,0c-0.7,0-1.3-0.2-1.8-0.7
		c-0.7-0.6-1-1.3-1-2.2v-25.7c0-1.3,0.9-2.4,2.1-2.8L59,214c0.9-0.2,1.8,0,2.5,0.5s1.1,1.4,1.1,2.3L62.6,243.4L62.6,243.4
		L62.6,243.4z M62.6,190.4c0,1.2-0.8,2.3-1.9,2.7l-8.8,3.1c-0.3,0.1-0.6,0.2-1,0.2c-0.6,0-1.2-0.2-1.6-0.5c-0.8-0.5-1.2-1.4-1.2-2.3
		v-25.7c0-1.1,0.7-2.2,1.7-2.6l8.8-3.9c0.9-0.4,1.9-0.3,2.7,0.2s1.3,1.4,1.3,2.4V190.4z M62.6,137.4c0,1.1-0.6,2-1.5,2.5l-8.8,4.7
		c-0.4,0.2-0.9,0.3-1.3,0.3c-0.5,0-1-0.1-1.5-0.4c-0.9-0.5-1.4-1.5-1.4-2.5v-25.7c0-1,0.5-1.9,1.3-2.4l8.8-5.5
		c0.9-0.6,2-0.6,2.9-0.1s1.5,1.5,1.5,2.5V137.4z M91.5,415.9c-0.5,0.3-1.1,0.5-1.6,0.5c-0.3,0-0.7-0.1-1-0.2l-10.7-3.9
		c-1.1-0.4-1.9-1.5-1.9-2.7v-28.3c0-0.9,0.4-1.7,1.1-2.3c0.7-0.5,1.6-0.7,2.5-0.5l10.7,3c1.2,0.3,2.1,1.5,2.1,2.8v29.2l0,0
		C92.7,414.5,92.2,415.4,91.5,415.9z M91.6,357.3c-0.5,0.4-1.2,0.7-1.8,0.7c-0.2,0-0.4,0-0.5-0.1l-10.7-2c-1.4-0.3-2.3-1.4-2.3-2.8
		v-28.3c0-0.8,0.3-1.6,0.9-2.1s1.4-0.8,2.2-0.7l10.7,1.1c1.5,0.1,2.6,1.4,2.6,2.9v29.2l0,0C92.7,355.9,92.3,356.7,91.6,357.3z
		 M92.7,296.6L92.7,296.6c0,0.8-0.3,1.5-0.9,2c-0.5,0.5-1.3,0.8-2,0.8l0,0l-10.7-0.1c-1.6,0-2.8-1.3-2.8-2.9v-28.3
		c0-1.5,1.1-2.7,2.6-2.8l10.7-0.9c0.8-0.1,1.6,0.2,2.2,0.7s0.9,1.3,0.9,2.1C92.7,267.2,92.7,296.6,92.7,296.6z M128.5,429.5
		c-0.5,0.3-1.1,0.5-1.6,0.5c-0.3,0-0.7-0.1-1-0.2l-13.2-4.9c-1.1-0.4-1.9-1.5-1.9-2.7v-31.4c0-0.9,0.4-1.7,1.1-2.3
		c0.7-0.5,1.6-0.7,2.5-0.5l13.2,3.7c1.2,0.3,2.1,1.5,2.1,2.8V427l0,0C129.7,428.1,129.2,429,128.5,429.5z M128.6,364.2
		c-0.5,0.4-1.2,0.7-1.8,0.7c-0.2,0-0.4,0-0.5-0.1l-13.2-2.5c-1.3-0.2-2.3-1.4-2.3-2.8v-31.3c0-0.8,0.3-1.6,0.9-2.1
		c0.6-0.6,1.4-0.8,2.2-0.7l13.2,1.3c1.5,0.1,2.6,1.4,2.6,2.9V362l0,0C129.7,362.9,129.3,363.7,128.6,364.2z M129.7,296.9
		c0,0.8-0.3,1.5-0.9,2c-0.5,0.5-1.3,0.8-2,0.8l0,0l-13.2-0.1c-1.6,0-2.8-1.3-2.8-2.9v-31.4c0-1.5,1.1-2.7,2.6-2.9l13.2-1.1
		c0.8-0.1,1.6,0.2,2.2,0.7s0.9,1.3,0.9,2.1V296.9z M127.3,234.7l-13.2,2.3c-0.2,0-0.3,0-0.5,0c-0.7,0-1.3-0.2-1.8-0.7
		c-0.7-0.5-1-1.3-1-2.2v-31.3c0-1.3,0.9-2.4,2.1-2.8l13.2-3.5c0.9-0.2,1.8,0,2.5,0.5c0.7,0.6,1.1,1.4,1.1,2.3v32.5l0,0
		C129.7,233.2,128.7,234.4,127.3,234.7z M129.7,166.7c0,1.2-0.8,2.3-1.9,2.7l-13.2,4.7c-0.3,0.1-0.6,0.2-1,0.2
		c-0.6,0-1.2-0.2-1.6-0.5c-0.8-0.5-1.2-1.4-1.2-2.3V140c0-1.1,0.7-2.2,1.7-2.6l13.2-5.9c0.9-0.4,1.9-0.3,2.7,0.2
		c0.8,0.5,1.3,1.4,1.3,2.4V166.7z M128.2,104.1l-13.3,7.1c-0.4,0.2-0.9,0.3-1.3,0.3c-0.5,0-1-0.1-1.5-0.4c-0.9-0.5-1.4-1.4-1.4-2.4
		V77.3c0-1,0.5-1.9,1.3-2.4l13.2-8.3c0.9-0.5,2-0.6,2.9-0.1c0.9,0.5,1.5,1.5,1.5,2.5v32.6l0,0C129.7,102.7,129.1,103.6,128.2,104.1z
		 M463.6,148c0-0.9,0.4-1.7,1.1-2.3c0.7-0.5,1.6-0.7,2.5-0.5l12.3,3.5c1.2,0.3,2.1,1.5,2.1,2.8v20.6l0,0c0,0.9-0.4,1.7-1.1,2.3
		c-0.5,0.4-1.1,0.6-1.8,0.6c-0.2,0-0.5,0-0.7-0.1l-12.3-3c-1.3-0.3-2.2-1.5-2.2-2.8V148H463.6z M407.7,132c0-0.9,0.4-1.7,1.1-2.3
		c0.7-0.5,1.6-0.7,2.5-0.5l15.1,4.3c1.2,0.3,2.1,1.5,2.1,2.8v22.8c0,0.9-0.4,1.7-1.1,2.3c-0.5,0.4-1.1,0.6-1.8,0.6
		c-0.2,0-0.5,0-0.7-0.1l-15.1-3.7c-1.3-0.3-2.2-1.5-2.2-2.8V132H407.7z M197.6,429l-30.6,5.2c-0.2,0-0.3,0-0.5,0
		c-0.7,0-1.3-0.2-1.9-0.7c-0.7-0.6-1-1.3-1-2.2v-33.6c0-1.4,1.1-2.7,2.5-2.8l30.6-3.9c0.8-0.1,1.6,0.1,2.3,0.7c0.6,0.6,1,1.3,1,2.1
		v32.3l0,0C200,427.6,199,428.8,197.6,429z M197.4,364.4l-30.6,2.6c-0.1,0-0.2,0-0.2,0c-0.7,0-1.4-0.3-1.9-0.8
		c-0.6-0.6-0.9-1.3-0.9-2.1v-33.3c0-1.5,1.2-2.8,2.7-2.9l30.6-1.4c0.8,0,1.5,0.2,2.1,0.8c0.6,0.5,0.9,1.3,0.9,2.1v32.1l0,0
		C200,363,198.9,364.3,197.4,364.4z M200,296.9c0,1.6-1.3,2.9-2.9,2.9l-30.6,0.1c-0.8,0-1.5-0.3-2-0.8s-0.8-1.3-0.8-2v-33.6
		c0-0.8,0.3-1.5,0.9-2.1c0.6-0.5,1.3-0.8,2.1-0.8l30.6,1.2c1.5,0.1,2.8,1.3,2.8,2.9v32.2H200z M252.3,419.7l-26.3,4.5
		c-0.2,0-0.3,0-0.5,0c-0.7,0-1.3-0.2-1.8-0.7c-0.6-0.5-1-1.3-1-2.2v-31.2c0-1.4,1.1-2.7,2.5-2.8l26.3-3.4c0.8-0.1,1.6,0.2,2.3,0.7
		c0.6,0.6,1,1.3,1,2.1v30l0,0C254.7,418.3,253.7,419.5,252.3,419.7z M254.7,356.8c0,1.5-1.1,2.7-2.6,2.8l-26.3,2.3
		c-0.1,0-0.2,0-0.2,0c-0.7,0-1.4-0.3-1.9-0.8c-0.6-0.5-0.9-1.3-0.9-2.1v-31c0-1.5,1.2-2.8,2.7-2.9l26.3-1.2c0.8-0.1,1.6,0.2,2.1,0.8
		c0.6,0.6,0.9,1.3,0.9,2.1v30H254.7z M251.8,299.6l-26.3,0.1l0,0c-0.8,0-1.5-0.3-2-0.8c-0.5-0.6-0.9-1.3-0.9-2v-31.2
		c0-0.8,0.3-1.5,0.9-2c0.6-0.6,1.3-0.9,2.1-0.8l26.3,1c1.5,0.1,2.8,1.3,2.8,2.9v30l0,0C254.7,298.3,253.4,299.6,251.8,299.6z
		 M302.2,408.9c0,1.4-1,2.6-2.4,2.8l-22.9,3.9c-0.2,0-0.3,0-0.5,0c-0.7,0-1.3-0.2-1.8-0.7c-0.7-0.6-1-1.3-1-2.2v-29
		c0-1.4,1.1-2.6,2.5-2.8l23-2.9c0.8-0.1,1.6,0.1,2.3,0.7c0.6,0.6,1,1.3,1,2.1v28.1H302.2z M302.2,352.7c0,1.5-1.1,2.7-2.6,2.9
		l-22.9,2c-0.1,0-0.2,0-0.3,0c-0.7,0-1.4-0.3-1.9-0.8c-0.6-0.5-0.9-1.3-0.9-2.1v-29c0-1.5,1.2-2.8,2.7-2.9l22.9-1
		c0.8,0,1.5,0.3,2.1,0.8s0.9,1.3,0.9,2.1L302.2,352.7L302.2,352.7z M302.2,296.5c0,1.6-1.3,2.9-2.9,2.9l-23,0.1
		c-0.8,0-1.5-0.3-2-0.8s-0.8-1.3-0.8-2v-29c0-0.8,0.3-1.5,0.9-2.1c0.6-0.5,1.3-0.8,2.1-0.8l22.9,0.9c1.5,0.1,2.8,1.3,2.8,2.9V296.5z
		 M397.5,440.9L397.5,440.9c0,1.3-0.9,2.4-2.2,2.8l-73.9,18.7c-0.2,0.1-0.5,0.1-0.7,0.1c-0.6,0-1.3-0.2-1.8-0.6
		c-0.7-0.6-1.1-1.4-1.1-2.3V296.5c0-0.3,0.5-30.1,42.1-28.5c37,1.4,37.4,28,37.4,28.3v144.6H397.5z M407.7,178.9
		c0-0.9,0.4-1.7,1.1-2.2s1.5-0.8,2.4-0.6l15.1,3.1c1.3,0.3,2.3,1.5,2.3,2.8v22.8c0,0.8-0.4,1.6-1,2.2c-0.5,0.4-1.2,0.7-1.8,0.7
		c-0.2,0-0.3,0-0.5,0l-15.1-2.4c-1.4-0.2-2.4-1.4-2.4-2.8v-23.6H407.7z M428.5,227.6v22.8c0,0.8-0.3,1.6-0.9,2.1
		c-0.5,0.5-1.2,0.8-1.9,0.8h-0.2l-15.1-1.2c-1.5-0.1-2.6-1.3-2.6-2.9v-23.5c0-0.8,0.3-1.6,1-2.1c0.6-0.5,1.4-0.8,2.2-0.7l15.1,1.8
		C427.5,224.9,428.5,226.2,428.5,227.6z M428.5,387.5c0,1.4-1,2.6-2.4,2.8l-15.1,2.6c-0.2,0-0.3,0-0.5,0c-0.7,0-1.3-0.2-1.8-0.7
		c-0.6-0.6-1-1.4-1-2.2v-23.5c0-1.4,1.1-2.7,2.5-2.8l15.1-1.9c0.8-0.1,1.6,0.2,2.3,0.7c0.6,0.6,1,1.3,1,2.2v22.8H428.5z
		 M428.5,341.8c0,1.5-1.1,2.7-2.6,2.8l-15.1,1.3c-0.1,0-0.2,0-0.2,0c-0.7,0-1.4-0.3-1.9-0.7c-0.6-0.6-0.9-1.3-0.9-2.1v-23.5
		c0-1.5,1.2-2.8,2.7-2.9l15.1-0.7c0.8-0.1,1.5,0.2,2.1,0.8c0.6,0.6,0.9,1.3,0.9,2.1v22.9H428.5z M428.6,295.9L428.6,295.9
		c0,1.6-1.3,2.9-2.9,2.9l-15.1,0.1l0,0c-0.8,0-1.5-0.3-2-0.8c-0.6-0.6-0.8-1.3-0.8-2v-23.3c0-0.8,0.3-1.5,0.9-2.1
		c0.6-0.5,1.3-0.8,2.1-0.8l15.1,0.6c1.5,0,2.8,1.3,2.8,2.9v22.5H428.6z M454,385.6l-13.6,2.3c-0.2,0-0.3,0-0.5,0
		c-0.7,0-1.3-0.2-1.8-0.7c-0.7-0.5-1-1.3-1-2.2v-22.2c0-1.4,1.1-2.7,2.5-2.8l13.6-1.7c0.8-0.1,1.6,0.2,2.3,0.7c0.6,0.6,1,1.3,1,2.1
		v21.7l0,0C456.4,384.1,455.4,385.3,454,385.6z M456.4,339.4c0,1.5-1.1,2.7-2.6,2.9l-13.6,1.2c-0.1,0-0.2,0-0.2,0
		c-0.7,0-1.4-0.3-1.9-0.8c-0.6-0.5-0.9-1.3-0.9-2.1v-22.2c0-1.5,1.2-2.8,2.7-2.9l13.6-0.6c0.8,0,1.5,0.2,2.1,0.8
		c0.6,0.5,0.9,1.3,0.9,2.1v21.6H456.4z M456.4,296c0,1.6-1.3,2.9-2.9,2.9h-13.6l0,0c-0.8,0-1.5-0.3-2-0.8s-0.8-1.3-0.8-2v-22.2
		c0-0.8,0.3-1.5,0.9-2.1c0.6-0.5,1.3-0.8,2.1-0.8l13.6,0.5c1.5,0.1,2.8,1.3,2.8,2.9V296H456.4z M456.4,252.7c0,0.8-0.3,1.6-0.9,2.1
		c-0.5,0.5-1.2,0.8-1.9,0.8h-0.2l-13.6-1.1c-1.5-0.1-2.6-1.4-2.6-2.9v-22.2c0-0.8,0.3-1.6,1-2.1c0.6-0.5,1.4-0.8,2.2-0.7l13.6,1.6
		c1.4,0.2,2.5,1.4,2.5,2.8v21.7H456.4z M456.4,209.3c0,0.9-0.4,1.6-1,2.2c-0.5,0.5-1.2,0.7-1.8,0.7c-0.2,0-0.3,0-0.5,0l-13.6-2.2
		c-1.4-0.2-2.4-1.4-2.4-2.8V185c0-0.9,0.4-1.7,1.1-2.2c0.7-0.6,1.5-0.8,2.4-0.6l13.6,2.8c1.3,0.3,2.3,1.4,2.3,2.8v21.5H456.4z
		 M455.3,168.2c-0.5,0.4-1.1,0.6-1.8,0.6c-0.2,0-0.5,0-0.7-0.1l-13.6-3.3c-1.3-0.3-2.2-1.5-2.2-2.8v-22.2c0-0.9,0.4-1.7,1.1-2.3
		s1.6-0.7,2.5-0.5l13.6,3.9c1.2,0.3,2.1,1.5,2.1,2.8V166l0,0C456.4,166.8,456,167.7,455.3,168.2z M479.2,381.3l-12.3,2.1
		c-0.2,0-0.3,0-0.5,0c-0.7,0-1.3-0.2-1.9-0.7c-0.7-0.6-1-1.3-1-2.2v-21.1c0-1.4,1.1-2.7,2.5-2.9l12.3-1.6c0.8-0.1,1.6,0.1,2.3,0.7
		c0.6,0.5,1,1.3,1,2.2v20.6l0,0C481.6,379.9,480.6,381,479.2,381.3z M481.6,337.2c0,1.5-1.1,2.7-2.6,2.9l-12.3,1.1
		c-0.1,0-0.2,0-0.2,0c-0.7,0-1.4-0.3-1.9-0.8c-0.6-0.5-0.9-1.3-0.9-2.1v-21.1c0-1.5,1.2-2.8,2.7-2.9l12.3-0.6c0.8,0,1.5,0.3,2.1,0.8
		c0.6,0.6,0.9,1.3,0.9,2.1v20.6H481.6z M481.6,295.9c0,1.6-1.3,2.9-2.9,2.9h-12.3c-0.8,0-1.5-0.3-2-0.8c-0.5-0.6-0.8-1.3-0.8-2
		v-21.1c0-0.8,0.3-1.5,0.9-2.1c0.6-0.5,1.3-0.8,2.1-0.8l12.3,0.5c1.5,0.1,2.8,1.3,2.8,2.9v20.5H481.6z M481.6,254.7
		c0,0.8-0.3,1.6-0.9,2.1c-0.5,0.5-1.2,0.8-1.9,0.8c-0.1,0-0.2,0-0.2,0l-12.3-1c-1.5-0.1-2.6-1.4-2.6-2.9v-21.2c0-0.8,0.3-1.6,1-2.1
		c0.6-0.5,1.4-0.8,2.2-0.7l12.3,1.5c1.4,0.2,2.5,1.4,2.5,2.8v20.7H481.6z M481.6,213.4L481.6,213.4c0,0.8-0.4,1.6-1,2.2
		c-0.5,0.4-1.2,0.7-1.8,0.7c-0.2,0-0.3,0-0.5,0l-12.3-2c-1.4-0.2-2.4-1.4-2.4-2.8v-21.1c0-0.9,0.4-1.7,1.1-2.2s1.6-0.8,2.4-0.6
		l12.3,2.5c1.3,0.3,2.3,1.4,2.3,2.8v20.5H481.6z"/>
</g>
<g>
	<g>
		<path class="st1" d="M205.6,64.9c0.5,0.8,0.8,1.3,1.1,1.7c4.7,7.1,9.7,14.2,13.9,21.6c2.3,4,4.9,7.5,8.5,10.4
			c0.2,0.1,0.3,0.3,0.2,0.5c0,0,0,0.1-0.1,0.1c-3-0.2-5.5-1.7-7.3-4.5c-6-9.3-13.5-17.1-22.1-24.1c-9-7.2-18.6-13.1-28.3-18.9
			c-0.6-0.3-1.2-0.5-1.6-1.4c3.1-0.9,6.4-0.7,9.8-0.2c9.9,1.5,19.5,5.1,29,9.7c10.8,5.2,21.2,11.4,30.6,19.8c2.4,2,4.5,4.4,6.3,6.9
			C233.4,76.7,220.5,68.4,205.6,64.9z M195.3,59.6l14.1,3.6c-8.6-4.4-17.3-7.7-26.4-8.6l25.4,19l0.2-0.3L195.3,59.6z"/>
		<path class="st1" d="M307.3,106c-0.6-1.1-1.5-2.1-2.5-2.9c-4.7-4-10.1-7-15.7-8.5c-4.7-1.2-9-4.2-12.1-8.4
			c-6.6-8.7-19-11.8-26.3-6.8c-0.2,0.1-0.4,0.3-0.4,0.6c1.6-0.2,3.2-0.4,4.8-0.6c4.9-0.4,9.8,0.5,14.6,3.3c3.6,2.1,5.6,5,5.6,8.2
			c0,2.9-1.5,5.2-4.3,5.5c-6.2,0.8-10.4,4.1-13.1,9.3c-1.9,3.6-4.8,5.5-9,6c-3.6,0.4-7.1,1.4-10.6,2.2c-0.3,0.1-0.7,0-0.6,0.5
			c0.1,0.4,0.5,0.3,0.7,0.2c3.9-0.7,8-0.5,12-1c5.2-0.6,8.9-3.3,10.7-8.1c1.7-4.7,5-7,9.9-7.7c6.6-1,13.3-1,20.3,0.9
			c4.7,1.2,9.2,3.4,13.6,5.9C305.7,105.1,306.4,105.5,307.3,106z"/>
		<path class="st1" d="M221.1,119c0.4,4.6,1.6,9.2,3.6,13.6c0.5,1.1,0.8,1.1,1.4,0.4c1-1,1.6-2.4,1.7-3.9c0.3-3.3-0.4-6.8-0.8-10.2
			c-0.3-2.2-0.6-4.5,0.3-6.8c1.8,6.9,3.6,13.4,5.3,19.9c0.5,2.4,0.6,4.8,0.2,7.1c-0.8,5.1-3.5,8.8-6.9,12.1
			c-0.8,0.8-1.1,0.7-1.7-0.5c-3.8-7.5-5.7-15.2-6-23c-0.2-5.2,0.2-10.2,0.9-15.1c0.4-2.8,0.7-5.6,1.5-8.2
			C220.9,109.3,220.6,114.1,221.1,119z M223.8,142c1.8,3.3,2,3.3,3.9,0.8s3.1-5.4,3-9l-4.7,6.6l-5.9-10.9
			C220.7,133.9,221.6,138.1,223.8,142L223.8,142z"/>
		<path class="st1" d="M193.4,68.9c-2.7-3.3-17.6-5-21.3-2.9c15.1,6.2,28.5,15.7,41.7,25.6c-2.4-2.6-4.7-5.2-7.1-7.8
			c-2.6-2.9-5.2-5.8-7.9-8.6c-0.7-0.7-0.8-1.1,0.1-1.4c0.4-0.1,0.9-0.3,0.7-1s-0.8-0.6-1.2-0.7c-2.2-0.5-4.3-0.8-6.5-1l11,10.2
			l-0.2,0.3c-0.9-0.6-1.9-1.2-2.8-1.9c-5.6-3.7-11.1-7.5-16.7-11.2c-0.4-0.2-1-0.4-0.9-0.9s0.7-0.2,1.1-0.2c2.8,0.4,5.7,0.8,8.5,1.2
			C192.4,68.7,192.9,68.8,193.4,68.9z"/>
		<path class="st1" d="M233.4,94c-7.3-7.5-10-11.4-11-15.6c5.2,1.4,10.2,3.8,15.1,6.4c-3.3-2.8-6.9-5.2-10.7-7
			c-2.4-1.2-4.9-2.2-7.4-2.6c-0.7-0.1-1.1-0.1-0.8,0.9c2.7,7.7,7.6,13.6,14.6,18C233.3,94,233.4,94,233.4,94z"/>
	</g>
</g>
<g class="st2">
	<path class="st1" d="M168.3,194.4c0-20,15.3-35,36.8-32.4c12.4,1.5,20.1,5.9,27.4,13l-7.9,8.5c-5.5-5.4-10.9-9-20-10.1
		c-13.1-1.6-23.1,8.7-23.1,22.5c0,14.7,9.7,26.7,24.2,28.4c6.7,0.8,12.8-0.6,17.2-3.3v-13.3l-18.2-2.2v-10.9l30.4,3.7v30
		c-7,5.1-17.1,9-29.7,7.5C183,233.1,168.3,215.4,168.3,194.4z"/>
	<path class="st1" d="M246.6,229.3l7.5-8c6.8,6.7,13.7,10.9,22.5,12c7.7,1,12.6-2,12.6-7.6c0-5.1-2.9-8.2-16.1-13
		c-15.2-5.4-23.7-11-23.7-24.3c0-12.2,10.2-19.4,24.3-17.7c10.4,1.3,18.6,5.4,25.9,12.1l-6.7,8.6c-6.4-5.6-12.8-8.9-19.4-9.7
		c-7.3-0.9-11.6,2.3-11.6,7.2c0,5.5,3.3,8.3,16.9,13.3c15.1,5.5,22.9,11.9,22.9,23.9c0,13.3-10.5,20-25.5,18.2
		C265.4,243,255.1,238,246.6,229.3z"/>
</g>
</svg>
