<svg id="LAYER_1" data-name="LAYER 1" xmlns="http://www.w3.org/2000/svg" viewBox="0 0 274.8 274.03">
  <defs>
    <style>
      .cls-1 {
        fill: #323e48;
        stroke: #414042;
        stroke-miterlimit: 10;
      }
    </style>
  </defs>
  <title>Cogwheel2</title>
  <path class="cls-1" d="M299.18,182.31c0-.08,0-0.17,0-0.25l13.13-4.2-0.43-5.77-0.43-5.77-13.6-2.2a123,123,0,0,0-4.21-18.55l11.28-7.87-2.11-5.38-2.11-5.39-13.62,1.91a123.58,123.58,0,0,0-9.52-16.45L286,101.52,282.41,97l-3.61-4.52-12.49,5.85A124.47,124.47,0,0,0,252.39,85.4l4.9-12.88-4.78-3.26L247.73,66l-10.19,9.26A123.19,123.19,0,0,0,220.41,67l0.88-13.72-5.53-1.71-5.53-1.71-7,11.84a123.6,123.6,0,0,0-18.8-2.81l-3.21-13.4H169.66l-3.21,13.4a123.6,123.6,0,0,0-18.8,2.81l-7-11.84-5.53,1.71-5.53,1.71L130.47,67a123.2,123.2,0,0,0-17.13,8.26L103.15,66l-4.78,3.26-4.78,3.26,4.9,12.88A124.47,124.47,0,0,0,84.56,98.33L72.08,92.48,68.47,97l-3.61,4.52,8.48,10.86a123.59,123.59,0,0,0-9.52,16.45l-13.62-1.91-2.11,5.39L46,137.7l11.28,7.87A123,123,0,0,0,53,164.12l-13.6,2.2L39,172.08l-0.43,5.77,13.13,4.2c0,0.08,0,.17,0,0.25A124.7,124.7,0,0,0,53.1,201l-12.34,6.1L42,212.75l1.29,5.64,13.75,0.15a122.9,122.9,0,0,0,7,17.71l-10,9.46,2.89,5,2.89,5L73,251.81a124.31,124.31,0,0,0,11.86,14.85l-6.77,12,4.24,3.93,4.24,3.93,11.47-7.65a124,124,0,0,0,15.69,10.73l-2.92,13.45,5.21,2.51,5.21,2.51L130,297.43a122.79,122.79,0,0,0,18.18,5.6l1.17,13.71L155,317.6l5.72,0.86,5.17-12.77q4.7,0.36,9.5.36t9.5-.36l5.17,12.77,5.72-.86,5.72-.86L202.73,303a122.79,122.79,0,0,0,18.18-5.6l8.69,10.66,5.21-2.51,5.21-2.51-2.92-13.45a124,124,0,0,0,15.69-10.73l11.47,7.65,4.24-3.93,4.24-3.93-6.77-12a124.31,124.31,0,0,0,11.86-14.85l13.2,3.92,2.89-5,2.89-5-10-9.46a122.9,122.9,0,0,0,7-17.71l13.75-.15,1.29-5.64,1.29-5.64L297.78,201A124.7,124.7,0,0,0,299.18,182.31Zm-17.57-16.69-66,9.49q-0.24-1.4-.57-2.77l64-18.79A106.78,106.78,0,0,1,281.61,165.62Zm-3.41-15-64,18.79c-0.29-.9-0.62-1.79-1-2.67l60.67-27.71A106.63,106.63,0,0,1,278.21,150.66ZM266.8,125.47a107.14,107.14,0,0,1,5.9,10.87L212,164c-0.42-.85-0.87-1.69-1.35-2.51Zm-1.62-2.53L209.1,159c-0.54-.79-1.11-1.55-1.7-2.29L257.79,113A107.81,107.81,0,0,1,265.18,122.94Zm-9.35-12.19L205.46,154.4c-0.65-.7-1.32-1.38-2-2L247.11,102A108.07,108.07,0,0,1,255.83,110.75Zm-11-10.74-43.65,50.38c-0.74-.6-1.51-1.18-2.29-1.73L235,92.55A107.82,107.82,0,0,1,244.85,100ZM221.59,85a107.21,107.21,0,0,1,10.85,6L196.4,147c-0.82-.49-1.66-0.95-2.52-1.38Zm-2.73-1.25-27.7,60.65c-0.88-.37-1.78-0.7-2.69-1l18.79-64A106.6,106.6,0,0,1,218.86,83.71Zm-14.48-5.2-18.79,64c-0.92-.24-1.87-0.43-2.81-0.6l9.49-66A106.77,106.77,0,0,1,204.38,78.51Zm-27.44-3.93a108.36,108.36,0,0,1,12.36.87l-9.49,66c-0.95-.1-1.91-0.16-2.87-0.2V74.58Zm-3,0v66.67c-1,0-1.92.1-2.87,0.2l-9.49-66A108.35,108.35,0,0,1,173.94,74.58Zm-15.33,1.3,9.49,66c-0.95.17-1.89,0.37-2.81,0.6l-18.79-64A106.78,106.78,0,0,1,158.61,75.88Zm-15,3.48,18.79,64c-0.91.31-1.81,0.64-2.69,1L132,83.71A106.61,106.61,0,0,1,143.62,79.36ZM129.29,85L157,145.63c-0.86.44-1.7,0.89-2.52,1.39l-36-56.08A107.18,107.18,0,0,1,129.29,85Zm-13.37,7.6L152,148.66c-0.78.55-1.55,1.12-2.29,1.73L106,100A107.78,107.78,0,0,1,115.92,92.56ZM103.77,102l43.67,50.39c-0.69.66-1.37,1.33-2,2L95,110.75A108.07,108.07,0,0,1,103.77,102ZM93.09,113l50.39,43.67c-0.59.75-1.16,1.51-1.7,2.29l-56.08-36A107.83,107.83,0,0,1,93.09,113Zm-9,12.45,56.1,36.05c-0.48.82-.93,1.65-1.35,2.51l-60.65-27.7A107.15,107.15,0,0,1,84.08,125.47ZM77,139.07l60.67,27.71q-0.53,1.31-1,2.67l-64-18.79A106.59,106.59,0,0,1,77,139.07Zm-5.11,14.47,64,18.79q-0.33,1.37-.57,2.77l-66-9.49A106.81,106.81,0,0,1,71.84,153.54Zm-3,15,66,9.49c-0.09.93-.14,1.87-0.16,2.82H68A108.37,108.37,0,0,1,68.86,168.59ZM68.05,183.9h66.67c0,0.94.13,1.88,0.23,2.8l-66,9.49A108.22,108.22,0,0,1,68.05,183.9Zm1.35,15.26,66-9.49c0.18,0.92.38,1.84,0.62,2.74l-64,18.79A106.74,106.74,0,0,1,69.4,199.16Zm3.5,14.91,64-18.79c0.31,0.88.63,1.76,1,2.62l-60.65,27.7A106.63,106.63,0,0,1,72.91,214.07Zm11.55,25a107.17,107.17,0,0,1-5.95-10.77l60.68-27.71c0.43,0.83.87,1.65,1.35,2.44Zm1.63,2.52,56.1-36.06c0.54,0.76,1.09,1.5,1.68,2.22L93.5,251.41A107.8,107.8,0,0,1,86.09,241.6Zm9.38,12.07L145.87,210c0.64,0.67,1.29,1.33,2,2l-43.65,50.38A108.11,108.11,0,0,1,95.47,253.67Zm11,10.62,43.67-50.39c0.72,0.57,1.46,1.13,2.22,1.65l-36,56.09A107.8,107.8,0,0,1,106.46,264.3Zm23.15,14.84a107.17,107.17,0,0,1-10.78-5.88l36.05-56.1q1.19,0.7,2.43,1.32Zm2.73,1.24L160,219.72q1.28,0.52,2.59,1l-18.79,64A106.61,106.61,0,0,1,132.34,280.38Zm26.39,7.71a106.78,106.78,0,0,1-12-2.59l18.79-64c0.89,0.22,1.79.41,2.7,0.57Zm15.21,1.28a108.35,108.35,0,0,1-12.24-.85l9.49-66c0.91,0.09,1.83.15,2.75,0.18v66.67ZM158.58,182a16.86,16.86,0,1,1,16.86,16.86A16.86,16.86,0,0,1,158.58,182Zm18.36,107.39V222.7c0.92,0,1.84-.09,2.75-0.18l9.49,66A108.34,108.34,0,0,1,176.94,289.36Zm15.21-1.28-9.49-66c0.91-.16,1.81-0.35,2.7-0.57l18.79,64A106.78,106.78,0,0,1,192.15,288.09ZM207,284.66l-18.79-64q1.32-.44,2.59-1l27.7,60.66A106.61,106.61,0,0,1,207,284.66Zm14.24-5.52-27.7-60.66q1.24-.62,2.43-1.32l36.05,56.1A107.15,107.15,0,0,1,221.27,279.14Zm13.31-7.49-36-56.09c0.76-.52,1.5-1.08,2.22-1.65l43.67,50.39A107.78,107.78,0,0,1,234.58,271.64Zm12.12-9.31L203,212c0.68-.63,1.34-1.28,2-2l50.39,43.67A108.07,108.07,0,0,1,246.69,262.34Zm10.69-10.93L207,207.76c0.59-.72,1.14-1.46,1.68-2.22l56.1,36.06A107.84,107.84,0,0,1,257.38,251.41Zm9-12.33-56.08-36c0.48-.79.93-1.61,1.35-2.44l60.68,27.71A107.19,107.19,0,0,1,266.42,239.08Zm7.2-13.5L213,197.89c0.36-.86.69-1.73,1-2.62l64,18.79A106.63,106.63,0,0,1,273.62,225.58Zm5.21-14.4-64-18.79c0.24-.9.44-1.81,0.62-2.74l66,9.49A106.78,106.78,0,0,1,278.83,211.19Zm3.09-15-66-9.49c0.11-.93.19-1.86,0.23-2.8h66.67A108.22,108.22,0,0,1,281.91,196.19ZM216.17,180.9c0-.95-0.07-1.89-0.16-2.82l66-9.49a108.4,108.4,0,0,1,.82,12.31H216.17Z" transform="translate(-38.04 -44.99)"/>
</svg>
