<svg id="LAYER_1" data-name="LAYER 1" xmlns="http://www.w3.org/2000/svg" viewBox="0 0 273.74 272.98">
  <defs>
    <style>
      .cls-1 {
        fill: #d8dad9;
      }
    </style>
  </defs>
  <title>Cogwheel</title>
  <path class="cls-1" d="M374,568.42c0-.06,0-0.12,0-0.18l0.1-.1,13-4.17-0.43-5.77-0.43-5.77-13.6-2.2a123,123,0,0,0-4.21-18.55l11.28-7.87-2.11-5.38L375.49,513,361.87,515a123.59,123.59,0,0,0-9.52-16.45l8.48-10.86-3.61-4.52-3.61-4.52-12.49,5.85q-1.6-1.73-3.27-3.41v-0.55h-0.57a124.34,124.34,0,0,0-10.08-9l4.9-12.88-4.78-3.26-4.78-3.26-10.19,9.26a123.19,123.19,0,0,0-17.13-8.26l0.88-13.72-5.53-1.71L285,436l-7,11.84a123.61,123.61,0,0,0-18.8-2.81L256,431.6H244.46L241.25,445a123.62,123.62,0,0,0-18.8,2.81l-7-11.84-5.53,1.71-5.53,1.71,0.88,13.72a123.2,123.2,0,0,0-17.13,8.26l-10.19-9.26-4.78,3.26-4.78,3.26,4.9,12.88a124.32,124.32,0,0,0-10.08,9h-0.57V481q-1.67,1.67-3.27,3.41l-12.49-5.85-3.61,4.52-3.61,4.52,8.48,10.86A123.58,123.58,0,0,0,138.62,515L125,513l-2.11,5.38-2.11,5.38L132,531.68a123,123,0,0,0-4.21,18.55l-13.6,2.2-0.43,5.77L113.37,564l13,4.17,0.1,0.1c0,0.06,0,.12,0,0.18a124.7,124.7,0,0,0,1.41,18.7l-12.34,6.1,1.29,5.64,1.29,5.64,13.75,0.15a122.9,122.9,0,0,0,7,17.71l-10,9.46,2.89,5,2.89,5,13.21-3.92a124.32,124.32,0,0,0,11.86,14.85l-6.77,12,4.24,3.93,4.24,3.93L172.89,665a124,124,0,0,0,15.69,10.73l-2.92,13.45,5.21,2.51,5.21,2.51,8.69-10.66a122.79,122.79,0,0,0,18.18,5.6l1.17,13.71,5.72,0.86,5.72,0.86,5.17-12.77q4.7,0.36,9.5.36t9.5-.36l5.17,12.77,5.72-.86,5.72-.86,1.17-13.71a122.81,122.81,0,0,0,18.18-5.6l8.69,10.66,5.21-2.51,5.21-2.51-2.92-13.45A124,124,0,0,0,327.59,665l11.47,7.65,4.24-3.93,4.24-3.93-6.77-12a124.32,124.32,0,0,0,11.86-14.85l13.2,3.92,2.89-5,2.89-5-10-9.46a122.9,122.9,0,0,0,7-17.71l13.75-.15,1.29-5.64,1.29-5.64-12.34-6.1A124.7,124.7,0,0,0,374,568.42ZM324.5,645.69h-28l31.32-31.32v28Q326.21,644.05,324.5,645.69Zm-42.11,0H255.24V598.41l25.32-25.32h47.28v27.14Zm-109.75-3.34v-28L204,645.69H176Q174.27,644.05,172.64,642.35Zm0-42.11V573.09h47.29l25.32,25.32v47.28H218.1ZM176,490.48h28L172.64,521.8v-28Q174.27,492.12,176,490.48Zm42.11,0h27.14v47.28l-25.32,25.32H172.64V535.94Zm109.75,3.34v28l-31.32-31.32h28Q326.21,492.12,327.84,493.83Zm0,42.11v27.14H280.56l-25.32-25.32V490.48h27.14Zm10,10L355,563.09H337.84V545.94ZM267.1,568.09a16.86,16.86,0,1,1-16.86-16.86A16.86,16.86,0,0,1,267.1,568.09Zm-11.86-87.6V463.34l17.14,17.14H255.24Zm-10,0H228.1l17.14-17.14v17.14Zm-82.6,82.6H145.49l17.14-17.14v17.14Zm0,10v17.14l-17.14-17.14h17.14Zm82.6,82.6v17.14L228.1,655.69h17.14Zm10,0h17.14l-17.14,17.14V655.69Zm82.6-82.6H355l-17.14,17.14V573.09Zm18.3-23-18.3-18.3V505.92A106.83,106.83,0,0,1,356.14,550.1Zm-43.74-69.62H286.53l-18.3-18.3A106.83,106.83,0,0,1,312.41,480.48Zm-80.15-18.3L214,480.48H188.08A106.83,106.83,0,0,1,232.26,462.18Zm-69.62,43.74V531.8l-18.3,18.3A106.84,106.84,0,0,1,162.64,505.92Zm-18.3,80.15,18.3,18.3v25.88A106.83,106.83,0,0,1,144.34,586.07Zm43.74,69.62H214l18.3,18.3A106.83,106.83,0,0,1,188.08,655.69ZM268.23,674l18.3-18.3h25.88A106.83,106.83,0,0,1,268.23,674Zm69.62-43.74V604.37l18.3-18.3A106.84,106.84,0,0,1,337.84,630.25Z" transform="translate(-113.37 -431.6)"/>
</svg>
