<?xml version="1.0" encoding="utf-8"?>
<!-- Generator: Adobe Illustrator 21.0.0, SVG Export Plug-In . SVG Version: 6.00 Build 0)  -->
<svg version="1.1" id="Layer_1" xmlns="http://www.w3.org/2000/svg" xmlns:xlink="http://www.w3.org/1999/xlink" x="0px" y="0px"
	 viewBox="0 0 521 100.3" style="enable-background:new 0 0 521 100.3;" xml:space="preserve">
<style type="text/css">
	.st0{fill:#FFFFFF;}
</style>
<g>
	<g>
		<path class="st0" d="M43.1,10.8c0.6,0.7,0.8,1.2,1.2,1.6c5.1,6.7,7.9,10.6,14.5,20.4c4.2,6.2,5.5,7.2,9.7,9.4
			c0.7,0.4,1.1,0.4,0.2,0.6c-3.2,0.5-5.9-0.7-7.8-3.3c-6.5-8.7-14.6-15.7-23.8-21.3c-9.7-5.9-20.7-10-30.6-14.6
			C5.6,3.3,5.3,3,4.6,2.7c3.3-1.6,6.9-2.2,10.6-2.3c10.7-0.5,21.1,1.4,31.2,4.3c11.7,3.3,23.4,7.2,33,14.9c4.4,3.6,4.3,3.7,6.8,6.1
			C73,17.8,59.2,11.5,43.1,10.8z M31.8,7.3C37.4,7.1,42,7.5,47.6,8.2c-9.2-3-18.8-4.7-28.7-3.8c9.6,4.7,19,9.5,28.7,17.2
			C47.7,21.6,42.5,15.8,31.8,7.3z"/>
		<path class="st0" d="M147.6,34.9c-0.7-1.2-1.6-1.9-2.5-2.5c-4.8-3.2-10.1-5.2-15.8-5.6c-4.9-0.4-8.9-2.4-12.2-6.2
			c-6.6-7.7-18.7-8.4-26.2-1.7c-0.2,0.2-0.4,0.2-0.4,0.7c1.7-0.5,2.8-1.1,4.5-1.5c5-1.4,9.9-1.5,14.8,0.4c3.7,1.4,5.7,4.1,5.7,7.3
			c0,3-1.6,5.7-4.3,6.6c-6.2,2-10.5,6.3-13.2,12.2c-0.9,2-2.2,3.7-3.6,5c-1.8,1.7-3.7,2.3-5.5,3c-4.7,1.8-7,1.1-10.7,3.5
			c-0.7,0.5-1.3,0.9-1.7,1.2c0.9-0.3,2.3-0.7,4.1-1.2c5.3-1.3,6.6-0.7,9.9-1.7c1.5-0.5,4.7-1.7,7.3-4.6c1.5-1.7,2.7-3.6,3.5-6
			c1.7-5.2,5.1-8.2,10.1-9.9c6.7-2.3,13.5-3.7,20.5-3.2c4.7,0.3,9.2,1.7,13.7,3.4C145.9,34.3,146.7,34.6,147.6,34.9z"/>
		<path class="st0" d="M57.7,65.6c0.5,4.8,1.9,10.3,4.2,14.7c0.5,1,0.8,1.1,1.6,0.2c1-1.3,1.5-3.7,1.7-5.3c0.3-3.7-0.4-7.2-0.9-10.8
			c-0.3-2.3-0.7-4.7,0.3-7.4c2,7,3.9,13.7,5.7,20.3c0.7,2.5,0.6,5.1,0.2,7.6C69.6,90.4,66.6,95,63,99.2c-0.8,1-1.2,0.9-1.7-0.2
			c-4.2-7.3-6.1-15.2-6.5-23.5C54.6,70,55,64.4,55.8,59c0.4-3.1,0.7-6.2,1.7-9.2C57.4,55.2,57.1,60.4,57.7,65.6z M60.6,89.9
			c2,3.2,2.2,3.2,4.2,0.1c2.2-3.1,3.4-6.5,3.2-10.4c-2.7,6-2.9,5.9-5.3,8.4c-4-3.8-4.7-6.7-6.1-10.8C57.2,81.7,58.1,86.1,60.6,89.9z
			"/>
		<path class="st0" d="M15.8,18.7c0,0,2.1,0.7,3,1.2c6.5,2.6,12.6,5.4,18,8.5c1,0.5,2.2,1.2,3.2,1.7c0.1-0.1-2-2.5-11.9-9.3
			c2.4,0.2,3.6,0.5,6.7,0.2c1-0.1,2-0.2,2.2,0.2c0.2,0.4-0.3,0.5-1.4,1.1c-1,0.5-1.3,0.7-0.2,1.7c3.3,3.2,3.3,3.1,8.5,7.6
			c2.6,2.3,5.2,4.5,7.8,6.8C37.4,30.2,23,21.9,6.8,19.3c4-3.1,15.7-4,22.9-1.3C15.9,17.3,15.8,18.7,15.8,18.7z"/>
		<path class="st0" d="M72.7,36.5c-7.8-6.5-10.3-9.7-11.8-14.4c7.3,0.7,10.9,1.9,16.2,3.7c-3.6-2.5-8.6-4.3-11.2-5
			c-3.2-0.8-4.7-1.1-8.2-1.6c-1.4-0.2-1.2,0.2-0.8,1.1C59.7,28,65.1,33.3,72.7,36.5C72.6,36.6,73.4,37,72.7,36.5z"/>
	</g>
	<g>
		<path class="st0" d="M189.8,20c0-2.6,1.3-4,4-4s4,1.3,4,3.9l-0.1,17.3c0,1.8-0.8,2.7-2.5,2.7L178,40c-5.9,0-10.7-1.8-14.4-5.5
			c-3.6-3.6-5.5-8.4-5.5-14.4s1.8-10.8,5.4-14.4c3.6-3.6,8.4-5.5,14.2-5.6h16.5c2.3,0,3.4,1.3,3.4,3.9s-1.1,4-3.3,3.9L192.4,8h-14.5
			c-3.5,0.1-6.3,1.2-8.5,3.5c-2.2,2.2-3.3,5.1-3.3,8.6c0,5,2,8.5,6.1,10.6c1.8,0.9,3.7,1.4,5.8,1.4l9.8-0.1c1.3,0.1,1.9-0.5,1.9-1.7
			L189.8,20L189.8,20z"/>
		<path class="st0" d="M232.4,24.1h-12.8v5.1c0,1.9,0.8,2.9,2.3,2.9h25.9c2.3,0,3.4,1.4,3.4,4s-1.2,4-3.6,3.9h-9.8h-21.9
			c-2.8,0-4.3-1.6-4.3-4.6V4.9c0-3.1,1.4-4.7,4.1-4.7h32.1c2.3,0,3.4,1.3,3.4,3.9s-1.1,4-3.3,3.9h-5.1h-2.9H222
			c-1.6,0.1-2.3,1.1-2.3,2.9v5.3h13c2.7,0,4,1.4,4,4C236.6,22.8,235.2,24.1,232.4,24.1z"/>
		<path class="st0" d="M304.7,9.5l-0.1,26.9c0.1,2.4-1.2,3.5-3.7,3.5h-2.1c-1.4,0-2.5-0.4-3.4-1.4L276,18.2c-1.9-1.6-2.9-1.6-2.9,0
			v3.9v13.8c0.1,2.7-1.2,4-3.9,4s-4-1.4-4-4V23.8V3.3c0-2,0.9-3,2.7-3.1h1.9c1.2,0.1,2.4,0.6,3.4,1.6l21,22.6c1.7,1,2.6,0.6,2.6-1.2
			v-11V4.3c-0.2-2.7,1.1-4,3.8-4c2.7,0,4.1,1.3,4.1,3.9V9.5L304.7,9.5z"/>
		<path class="st0" d="M339.1,24.1h-12.8v5.1c0,1.9,0.8,2.9,2.3,2.9h25.9c2.3,0,3.4,1.4,3.4,4s-1.2,4-3.6,3.9h-9.8h-21.9
			c-2.8,0-4.3-1.6-4.3-4.6V4.9c0-3.1,1.4-4.7,4.1-4.7h32.1c2.3,0,3.4,1.3,3.4,3.9s-1.1,4-3.3,3.9h-5.1h-2.9h-17.9
			c-1.5,0.1-2.3,1.1-2.3,2.9v5.3h13c2.7,0,4,1.4,4,4C343.4,22.8,342,24.1,339.1,24.1z"/>
		<path class="st0" d="M386.5,20.2c0-2.6,1.3-4,4-4h8.4c2.2,0,3.6-0.6,4.2-1.9c0.3-0.5,0.4-1.2,0.4-2.1c0-1.1-0.2-1.8-0.5-2.3
			s-1-0.9-2-1.2c-1.2-0.4-3-0.6-5.4-0.6h-13.2c-1.8,0-2.7,1-2.7,2.9v24.9c0.1,2.7-1.2,4-3.9,4c-2.7,0-4-1.4-4-4V5.3
			c0-3.3,1.5-5,4.5-5h19.3c6.9,0.1,11.6,1.9,14.1,5.4c1.2,1.8,1.9,4,1.9,6.6c-0.2,4.6-2.1,7.4-5.8,8.3c3.6,0.8,5.5,3.3,5.6,7.6v6.9
			V36c0,2.6-1.3,4-4,4c-2.6,0-3.9-1.4-3.8-4l0.1-7.9c0-0.9-0.1-1.6-0.4-2.1c-0.6-1.2-2-1.9-4.2-1.9h-8.2
			C387.9,24.1,386.5,22.8,386.5,20.2z"/>
		<path class="st0" d="M443.5,12.5l-9.8,25.7c-0.4,1.1-1.2,1.8-2.4,1.9h-4.1c-1.4-0.1-1.9-1.1-1.4-2.8l13.8-34.7
			c0.9-1.6,2.6-2.3,5.2-2.3s4.3,0.8,5,2.5l14.1,34.7c0.5,1.6,0,2.5-1.4,2.5l-4.1,0.1c-1.2-0.1-2-0.7-2.4-1.9l-10-25.7
			C445.3,9.7,444.4,9.7,443.5,12.5z"/>
		<path class="st0" d="M517.2,36c0,2.6-1.2,4-3.6,3.9L511,40h-28.9c-3-0.1-4.5-1.8-4.5-5V4.3c0-2.6,1.3-4,4-4s4,1.3,3.9,4v11.9v11.9
			c0,2.6,1,3.9,3.1,3.9h10.3h14.8C516,32,517.2,33.3,517.2,36z"/>
	</g>
	<g>
		<path class="st0" d="M120,65.2v-1.7c-0.1-2,1.1-3,3.5-3.1h32.7c2.3,0,3.4,1.3,3.4,3.9s-1.1,3.9-3.3,3.8h-22.9l22.7,21.4
			c1.9,1.8,3.1,3.8,3.5,5.8v1.9c0,2-1,3-2.9,2.9h-33.1c-2.4,0-3.6-1.3-3.6-3.9s1.1-4,3.4-4h22.4l-22.6-20.9
			C121.5,68.9,120.4,66.9,120,65.2z"/>
		<path class="st0" d="M194.1,84.3h-12.8v5.1c0,1.9,0.8,2.9,2.3,2.9h25.9c2.3,0,3.4,1.4,3.4,4s-1.2,4-3.6,3.9h-9.8h-21.9
			c-2.8,0-4.3-1.6-4.3-4.7V65c0-3.1,1.4-4.7,4.1-4.7h32.1c2.3,0,3.4,1.3,3.4,3.9s-1.1,4-3.3,3.9h-5.1h-2.9h-18
			c-1.6,0.1-2.3,1.1-2.3,2.9v5.3h13c2.7,0,4.1,1.4,4.1,4C198.4,83,196.9,84.3,194.1,84.3z"/>
		<path class="st0" d="M241.6,80.4c0-2.6,1.4-4,4.1-4h8.4c2.2,0,3.6-0.6,4.2-1.9c0.3-0.5,0.4-1.2,0.4-2.1c0-1.1-0.2-1.8-0.5-2.3
			s-1-0.9-2-1.2c-1.2-0.4-3-0.6-5.4-0.6h-13.2c-1.8,0-2.7,1-2.7,2.9v25c0.1,2.7-1.2,4-3.9,4s-4.1-1.4-4.1-4V65.5c0-3.3,1.5-5,4.5-5
			h19.3c6.9,0.1,11.6,1.9,14.1,5.5c1.2,1.8,1.9,4,1.9,6.6c-0.2,4.7-2.2,7.4-5.8,8.3c3.6,0.8,5.5,3.3,5.6,7.6v6.9v0.9
			c0,2.6-1.4,4-4.1,4c-2.6,0-3.9-1.4-3.8-4.1l0.1-7.9c0-0.9-0.1-1.6-0.4-2.1c-0.6-1.2-2-1.9-4.2-1.9h-8.2
			C243,84.3,241.6,83,241.6,80.4z"/>
		<path class="st0" d="M300.5,88l10-25.7c0.5-1.1,1.3-1.8,2.5-1.9l4.1,0.1c1.4,0,1.8,0.9,1.4,2.5l-14.2,34.7c-0.8,1.6-2.5,2.5-5,2.5
			c-2.6,0-4.4-0.7-5.2-2.3l-13.8-34.7c-0.5-1.8-0.1-2.7,1.4-2.8h4.1c1.2,0.1,2,0.7,2.4,1.9L298,88C298.7,90.7,299.6,90.7,300.5,88z"
			/>
		<path class="st0" d="M331.7,74.2v-9.8c0-2.6,1.4-4,4.1-4s4,1.3,3.9,4v31.8c0.1,2.7-1.2,4-3.9,4c-2.7,0-4.1-1.4-4.1-4V74.2z"/>
		<path class="st0" d="M389.4,92.2c2.3,0,3.4,1.4,3.4,4s-1.1,4-3.4,4h-16.3c-6,0-10.8-1.8-14.4-5.5c-3.6-3.6-5.5-8.4-5.5-14.4
			s1.8-10.8,5.5-14.4s8.4-5.5,14.3-5.6h16.4c2.3,0,3.4,1.3,3.4,3.9c0,2.6-1.1,4-3.3,3.9l-1.3,0.1H373c-3.5,0.1-6.3,1.2-8.5,3.5
			s-3.3,5.1-3.3,8.6c0,5,2,8.6,6.1,10.6c1.8,0.9,3.7,1.3,5.7,1.3H389.4z"/>
		<path class="st0" d="M427.5,84.3h-12.8v5.1c0,1.9,0.8,2.9,2.3,2.9h25.9c2.3,0,3.4,1.4,3.4,4s-1.2,4-3.6,3.9h-9.8H411
			c-2.8,0-4.3-1.6-4.3-4.7V65c0-3.1,1.4-4.7,4.1-4.7h32.1c2.3,0,3.4,1.3,3.4,3.9s-1.1,4-3.3,3.9h-5.1H435h-18
			c-1.6,0.1-2.3,1.1-2.3,2.9v5.3h13c2.7,0,4.1,1.4,4.1,4C431.7,83,430.3,84.3,427.5,84.3z"/>
		<path class="st0" d="M487.4,76.3c2.8-0.1,5.6,0.9,8.4,2.9s4.2,5,4.2,8.9c0,2.6-0.6,4.8-1.9,6.6c-2.5,3.6-7.2,5.3-14.2,5.3h-20
			c-2.4,0-3.6-1.3-3.6-3.9c0-2.7,1.1-4,3.4-4h7H484c2.5,0,4.4-0.2,5.5-0.5c1-0.3,1.6-0.7,2-1.2c0.3-0.5,0.5-1.2,0.5-2.3
			c0-0.9-0.1-1.6-0.4-2.1c-0.6-1.2-2-1.9-4.2-1.9h-14.6c-2.8,0.1-5.6-0.9-8.4-2.9s-4.2-5-4.2-8.9c0-2.6,0.6-4.8,1.9-6.6
			c2.5-3.6,7.2-5.3,14-5.3l18.6-0.1h1.6c2.4-0.1,3.6,1.2,3.6,3.8c0,2.7-1.1,4-3.3,3.9h-20.5c-2.4,0.2-4.2,0.4-5.4,0.8
			c-1,0.3-1.6,0.7-2,1.2c-0.3,0.5-0.5,1.2-0.5,2.3c0,0.9,0.1,1.6,0.4,2.1c0.6,1.2,2,1.9,4.2,1.9h6.6
			C479.4,76.3,487.4,76.3,487.4,76.3z"/>
	</g>
</g>
</svg>
