<svg id="Layer_1" data-name="Layer 1" xmlns="http://www.w3.org/2000/svg" viewBox="0 0 290.63 290.63">
  <defs>
    <style>
      .cls-1 {
        fill: #c1433c;
      }

      .cls-2 {
        fill: #fff;
      }
    </style>
  </defs>
  <title>1market-analysis</title>
  <g>
    <path class="cls-1" d="M145.31,154.69A9.38,9.38,0,1,1,150,137.24V4.8c-1.56-.05-3.12-0.12-4.69-0.12a140.62,140.62,0,1,0,0,281.25c1.57,0,3.13-.07,4.69-0.12V153.39A9.32,9.32,0,0,1,145.31,154.69Z"/>
    <path class="cls-2" d="M281,154.38l9.36,0.61c0.21-3.2.31-6.46,0.31-9.68h-9.37Q281.25,149.88,281,154.38Z"/>
    <path class="cls-2" d="M43.26,235.13l-7,6.21a148.4,148.4,0,0,0,13.44,13.39l6.17-7.06A137.91,137.91,0,0,1,43.26,235.13Z"/>
    <path class="cls-2" d="M64.74,266.26a146,146,0,0,0,16.45,9.49l4.14-8.41a135.34,135.34,0,0,1-15.39-8.88Z"/>
    <path class="cls-2" d="M98.75,283a144.86,144.86,0,0,0,18.36,4.89l1.81-9.2a134.12,134.12,0,0,1-17.17-4.57Z"/>
    <path class="cls-2" d="M258.3,220.93l7.79,5.22a145.4,145.4,0,0,0,9.52-16.43l-8.4-4.16A137,137,0,0,1,258.3,220.93Z"/>
    <path class="cls-2" d="M12,172.21l-9.19,1.84a145.21,145.21,0,0,0,4.95,18.33l8.87-3A135.6,135.6,0,0,1,12,172.21Z"/>
    <path class="cls-2" d="M15.1,209.89a144.87,144.87,0,0,0,9.54,16.4l7.78-5.23a136.51,136.51,0,0,1-8.92-15.35Z"/>
    <path class="cls-2" d="M136.54,281l-0.6,9.36q4.65,0.3,9.38.3c3.21,0,6.45-.1,9.6-0.31L154.3,281A138,138,0,0,1,136.54,281Z"/>
    <path class="cls-2" d="M274,189.16l8.88,3a144.15,144.15,0,0,0,4.93-18.35l-9.2-1.83A134.94,134.94,0,0,1,274,189.16Z"/>
    <path class="cls-2" d="M171.91,278.65l1.83,9.19a145.07,145.07,0,0,0,18.34-4.91l-3-8.88A135.07,135.07,0,0,1,171.91,278.65Z"/>
    <path class="cls-2" d="M234.9,247.56l6.18,7.05A146.23,146.23,0,0,0,254.5,241.2l-7-6.19A137.76,137.76,0,0,1,234.9,247.56Z"/>
    <path class="cls-2" d="M205.44,267.27l4.15,8.4a145.8,145.8,0,0,0,16.43-9.5l-5.21-7.79A137.37,137.37,0,0,1,205.44,267.27Z"/>
    <path class="cls-2" d="M9.38,145.31c0-75,61-135.94,135.94-135.94A135.3,135.3,0,0,1,213.44,27.7l-13.62,5.45,3.48,8.7L229.69,31.3V4.69h-9.37V20.93A144.55,144.55,0,0,0,145.31,0C65.19,0,0,65.19,0,145.31c0,3.23.11,6.49,0.31,9.68l9.36-.61Q9.37,149.88,9.38,145.31Z"/>
    <path class="cls-2" d="M248.44,112.5a13.91,13.91,0,0,0-2.13-7.35L272,64.8a14.14,14.14,0,1,0-7.36-5.89L238.94,99.26a13.64,13.64,0,0,0-14.12,3L206.05,91a13.64,13.64,0,0,0,.2-1.92,14.06,14.06,0,0,0-28.13,0,13.89,13.89,0,0,0,1.77,6.69l-29.25,36.56c-0.21-.08-0.44-0.13-0.65-0.2v-104h-4.69a117.19,117.19,0,1,0,0,234.38H150v-104a14,14,0,0,0,9.38-13.2,13.89,13.89,0,0,0-1.77-6.69l29.25-36.56a13.9,13.9,0,0,0,14.89-2.74l18.77,11.26a13.64,13.64,0,0,0-.2,1.92A14.06,14.06,0,0,0,248.44,112.5Zm28.12-65.62a4.69,4.69,0,1,1-4.69,4.69A4.7,4.7,0,0,1,276.56,46.88ZM140.63,93.55A106.57,106.57,0,0,1,103,84.33a117.24,117.24,0,0,1,37.62-43.17V93.55ZM94.79,80.34a132.49,132.49,0,0,1-22-14.67,107.5,107.5,0,0,1,55.6-26.81A131.93,131.93,0,0,0,94.79,80.34Zm-4,8.6a140.94,140.94,0,0,0-11,51.69H37.62a107.39,107.39,0,0,1,28.45-68.3A137.42,137.42,0,0,0,90.77,88.94ZM79.79,150a140.82,140.82,0,0,0,11,51.69,137.67,137.67,0,0,0-24.7,16.6A107.34,107.34,0,0,1,37.62,150H79.79Zm15,60.29a131.91,131.91,0,0,0,33.57,41.48A107.46,107.46,0,0,1,72.76,225,132.18,132.18,0,0,1,94.79,210.29Zm8.39-4.07a106.37,106.37,0,0,1,37.44-9.14v52.29A120.34,120.34,0,0,1,103.19,206.22Zm37.44-18.52a115.84,115.84,0,0,0-41.44,9.92,132.17,132.17,0,0,1-10-47.62h42.94a14.05,14.05,0,0,0,8.51,8.51V187.7h0Zm-8.51-47.07H89.17A133.6,133.6,0,0,1,99,92.94a115.92,115.92,0,0,0,41.6,10v29.18A14,14,0,0,0,132.11,140.63Zm13.2,9.38a4.69,4.69,0,1,1,4.69-4.69A4.7,4.7,0,0,1,145.31,150Zm46.88-56.25a4.69,4.69,0,1,1,4.69-4.69A4.7,4.7,0,0,1,192.19,93.75Zm42.19,23.44a4.69,4.69,0,1,1,4.69-4.69A4.7,4.7,0,0,1,234.38,117.19Z"/>
  </g>
</svg>
