<?xml version="1.0" encoding="utf-8"?>
<!-- Generator: Adobe Illustrator 19.2.1, SVG Export Plug-In . SVG Version: 6.00 Build 0)  -->
<svg version="1.1" id="Layer_1" xmlns="http://www.w3.org/2000/svg" xmlns:xlink="http://www.w3.org/1999/xlink" x="0px" y="0px"
	 viewBox="0 0 512 512" style="enable-background:new 0 0 512 512;" xml:space="preserve">
<style type="text/css">
	.st0{fill:#FFFFFF;}
	.st1{fill:#C1433C;}
</style>
<g>
	<path class="st0" d="M320,447.3l-27.2-335.2c5.8-4.8,9.8-11.8,10.5-19.8l5.8-64.2c0.7-7.3-1.7-14.6-6.6-19.9
		C297.7,3,290.9,0,283.4,0h-54.9c-7.5,0-14.3,2.9-19.2,8.3c-4.9,5.4-7.2,12.4-6.5,19.9l5.8,64.2c0.7,7.8,4.7,14.8,10.5,19.6
		L192,447.3c-0.2,2.7,0.8,5.3,2.6,7.2l54.9,54.9c1.8,1.8,4.1,2.7,6.5,2.7s4.7-0.9,6.5-2.7l54.9-54.9
		C319.2,452.6,320.2,449.9,320,447.3z M222.9,20.6c1.4-1.5,3.4-2.3,5.7-2.3h54.9c2.3,0,4.3,0.8,5.7,2.4c1.4,1.5,2.1,3.6,1.9,5.9
		l-5.8,64.1c-0.5,5.4-5.4,9.9-10.8,9.9h-36.6c-5.3,0-10.3-4.6-10.8-9.9L221,26.5C220.8,24.2,221.5,22.1,222.9,20.6z M278.1,157.1
		c-0.2,0.1-0.3,0.3-0.5,0.4L230,205.1l7-86.2h38L278.1,157.1z M227.7,233.2l52.3-52.3l6.3,77.6c-0.1,0.1-0.2,0.1-0.2,0.2l-65.8,65.8
		L227.7,233.2z M218,352.6l70.2-70.2l5.6,69.1l-82.4,82.4L218,352.6z M256,489.9l-37.3-37.4l77.1-77.2l5.6,69.1L256,489.9z"/>
	<polygon class="st1" points="301.4,444.5 256,489.9 218.7,452.6 295.8,375.4 	"/>
	<polygon class="st1" points="293.9,351.5 211.5,433.9 218,352.6 288.3,282.4 	"/>
	<path class="st1" d="M286.3,258.5c-0.1,0.1-0.2,0.1-0.2,0.2l-65.8,65.8l7.4-91.3l52.3-52.3L286.3,258.5z"/>
	<path class="st1" d="M278.1,157.1c-0.2,0.1-0.3,0.3-0.5,0.4L230,205.1l7-86.2h38L278.1,157.1z"/>
</g>
</svg>
