<?xml version="1.0" encoding="utf-8"?>
<!-- Generator: Adobe Illustrator 19.2.1, SVG Export Plug-In . SVG Version: 6.00 Build 0)  -->
<svg version="1.1" id="Capa_1" xmlns="http://www.w3.org/2000/svg" xmlns:xlink="http://www.w3.org/1999/xlink" x="0px" y="0px"
	 viewBox="0 0 512 512" style="enable-background:new 0 0 512 512;" xml:space="preserve">
<style type="text/css">
	.st0{fill:#FFFFFF;}
	.st1{fill:#C1433C;}
</style>
<g>
	<g>
		<path class="st0" d="M344.9,429.6c-2.7-1.6-5-3.8-6.8-6.4c-0.8-1.2-1.6-2.5-2.2-3.8H34.5V122.3h409.2v194
			c8.7,0.8,16.1,6.5,19.1,14.4c2.7-1.5,5.8-2.4,9-2.7c2.2-0.2,4.3-0.1,6.4,0.4V48.2c0-15.8-12.9-28.7-28.7-28.7H28.7
			C12.9,19.5,0,32.4,0,48.2v376.9c0,15.8,12.9,28.7,28.7,28.7h313.6c-2.4-5-3-10.5-1.6-15.9C341.5,434.9,343,432,344.9,429.6z
			 M412.1,67.8c0-5.9,4.8-10.6,10.6-10.6h10.6c5.9,0,10.6,4.8,10.6,10.6v12c0,5.9-4.8,10.6-10.6,10.6h-10.6
			c-5.9,0-10.6-4.8-10.6-10.6V67.8z M362.8,67.8c0-5.9,4.8-10.6,10.6-10.6H384c5.9,0,10.6,4.8,10.6,10.6v12
			c0,5.9-4.8,10.6-10.6,10.6h-10.6c-5.9,0-10.6-4.8-10.6-10.6V67.8z M313.5,67.8c0-5.9,4.8-10.6,10.6-10.6h10.6
			c5.9,0,10.6,4.8,10.6,10.6v12c0,5.9-4.8,10.6-10.6,10.6h-10.6c-5.9,0-10.6-4.8-10.6-10.6V67.8z"/>
		<path class="st1" d="M511.9,409.4l-3.2-18.1c-0.4-2.4-2.8-4.1-5.2-3.6l-16.1,2.8c-1.9-4.5-4.4-8.8-7.3-12.7l10.5-12.5
			c0.8-0.9,1.1-2.1,1-3.3c-0.1-1.2-0.7-2.3-1.6-3L476,347.2c-0.9-0.8-2.1-1.1-3.3-1c-1.2,0.1-2.3,0.7-3,1.6l-10.5,12.5
			c-4.3-2.2-8.9-3.9-13.7-5V339c0-2.5-2-4.5-4.5-4.5h-18.4c-2.5,0-4.5,2-4.5,4.5v16.3c-4.8,1.1-9.4,2.8-13.7,5l-10.5-12.5
			c-1.6-1.9-4.4-2.1-6.3-0.6L373.6,359c-0.9,0.8-1.5,1.9-1.6,3c-0.1,1.2,0.3,2.4,1,3.3l10.5,12.5c-2.9,3.9-5.4,8.1-7.3,12.7
			l-16.1-2.8c-2.4-0.4-4.8,1.2-5.2,3.6l-3.2,18.1c-0.2,1.2,0.1,2.4,0.7,3.3c0.7,1,1.7,1.6,2.9,1.8l16.1,2.8c0.3,5,1.1,9.8,2.5,14.4
			l-14.1,8.2c-1,0.6-1.8,1.6-2.1,2.7c-0.3,1.1-0.1,2.4,0.4,3.4l9.2,15.9c0.6,1,1.6,1.8,2.7,2.1c0.4,0.1,0.8,0.2,1.2,0.2
			c0.8,0,1.6-0.2,2.2-0.6l14.2-8.2c3.3,3.6,7.1,6.7,11.2,9.4l-5.6,15.4c-0.4,1.1-0.4,2.3,0.1,3.4s1.4,1.9,2.5,2.3l17.2,6.3
			c0.5,0.2,1,0.3,1.5,0.3c0.6,0,1.3-0.1,1.9-0.4c1.1-0.5,1.9-1.4,2.3-2.5l5.6-15.4c2.4,0.3,4.8,0.4,7.3,0.4s4.9-0.2,7.3-0.4
			l5.6,15.4c0.4,1.1,1.2,2,2.3,2.5c0.6,0.3,1.2,0.4,1.9,0.4c0.5,0,1-0.1,1.5-0.3l17.3-6.3c1.1-0.4,2-1.2,2.5-2.3
			c0.5-1.1,0.6-2.3,0.1-3.4l-5.6-15.4c4.1-2.7,7.9-5.8,11.2-9.4l14.2,8.2c0.7,0.4,1.5,0.6,2.2,0.6c0.4,0,0.8-0.1,1.2-0.2
			c1.1-0.3,2.1-1.1,2.7-2.1l9.2-15.9c0.6-1,0.8-2.3,0.4-3.4c-0.3-1.1-1.1-2.1-2.1-2.7l-14.1-8.2c1.4-4.6,2.3-9.4,2.5-14.4l16.1-2.8
			c1.2-0.2,2.2-0.9,2.9-1.8C511.9,411.8,512.1,410.6,511.9,409.4z M431.8,438.1c-13.6,0-24.6-11-24.6-24.6s11-24.6,24.6-24.6
			c13.6,0,24.6,11,24.6,24.6S445.4,438.1,431.8,438.1z"/>
		<g>
			<path class="st0" d="M200.8,287c0-5.8-3.4-11.1-8.7-13.6L144,251.1l48.1-22.4c5.3-2.4,8.7-7.8,8.7-13.6v-0.4
				c0-5.1-2.6-9.8-6.9-12.6c-2.4-1.5-5.2-2.3-8.1-2.3c-2.2,0-4.3,0.5-6.3,1.4L102.6,237c-5.3,2.4-8.6,7.8-8.6,13.6v1.1
				c0,5.8,3.4,11.1,8.6,13.6l76.9,35.8c2,0.9,4.1,1.4,6.3,1.4c2.9,0,5.6-0.8,8-2.3c4.3-2.8,6.9-7.5,6.9-12.6L200.8,287L200.8,287z"
				/>
			<path class="st0" d="M276.7,163.4c-2.8-3.8-7.3-6.1-12.1-6.1h-0.4c-6.5,0-12.3,4.2-14.2,10.4l-50.7,157
				c-1.4,4.5-0.6,9.5,2.2,13.4c2.8,3.8,7.3,6.1,12.1,6.1h0.4c6.5,0,12.2-4.2,14.2-10.4l50.7-157
				C280.3,172.2,279.5,167.2,276.7,163.4z"/>
			<path class="st0" d="M375.5,237l-76.9-35.8c-1.9-0.9-4.1-1.4-6.3-1.4c-2.9,0-5.7,0.8-8.1,2.3c-4.3,2.8-6.9,7.5-6.9,12.6v0.4
				c0,5.8,3.4,11.1,8.7,13.6l48.1,22.3L286,273.4c-5.3,2.4-8.7,7.8-8.7,13.6v0.4c0,5.1,2.6,9.8,6.9,12.6c2.4,1.5,5.2,2.3,8,2.3
				c2.2,0,4.3-0.5,6.3-1.4l76.9-35.8c5.3-2.4,8.6-7.8,8.6-13.6v-1.1C384.2,244.7,380.8,239.4,375.5,237z"/>
		</g>
	</g>
</g>
</svg>
