<svg id="Layer_1" data-name="Layer 1" xmlns="http://www.w3.org/2000/svg" viewBox="0 0 888.89 153.17">
  <defs>
    <style>
      .cls-1 {
        fill: #c1433c;
      }
    </style>
  </defs>
  <title>big</title>
  <g>
    <path class="cls-1" d="M927.51,488c-0.33,13.72-8.28,27.47-17.53,37.19-10.86,11.41-26.29,17.89-41,22.68-34.86,11.35-72,13.57-108.33,16.63l-113.25,9.55C612.52,577,576.9,579,543.07,588.6,527.4,593,511.64,599.41,499,609.89c-8.89,7.35-16.4,17.51-14.64,29.6,0.18,1.26,2.11.73,1.92-.53-2-13.77,9.34-24.78,19.75-31.85,13.6-9.24,29.4-14.71,45.27-18.61,35.22-8.67,71.92-10.4,107.94-13.44q56.11-4.73,112.21-9.47c34.83-3,70.69-5.74,103.8-17.76,14.34-5.2,28.58-12.17,38.63-24,8.34-9.8,15.34-22.73,15.66-35.86a1,1,0,0,0-2,0h0Z" transform="translate(-484.07 -487.04)"/>
    <path class="cls-1" d="M927.51,488c0.62,26.1,22.49,46.24,44.72,56,31.19,13.71,66.16,17.36,99.76,20.4,37.32,3.38,74.69,6.34,112,9.49,36.47,3.08,73.51,4.77,109.47,11.89,18.1,3.58,36.33,8.64,52.34,18.05C1358,611,1373.07,623,1370.75,639c-0.18,1.26,1.74,1.8,1.92.53,3.63-25-28.18-40.38-47.15-47.2-32.26-11.6-67.39-14.13-101.28-17q-56.55-4.79-113.11-9.54c-37.12-3.13-75-4.89-111.19-14.39-17.09-4.49-35.8-10.65-49.25-22.62-11.14-9.92-20.83-25.44-21.2-40.74a1,1,0,0,0-2,0h0Z" transform="translate(-484.07 -487.04)"/>
  </g>
</svg>
