<svg id="Layer_1" data-name="Layer 1" xmlns="http://www.w3.org/2000/svg" viewBox="0 0 536.78 152.71">
  <defs>
    <style>
      .cls-1 {
        fill: #c1433c;
      }
    </style>
  </defs>
  <title>medium</title>
  <g>
    <path class="cls-1" d="M927.73,488c0.27,16.82,6.56,36.12,18.42,48.36,14.93,15.42,36.51,22.07,57.05,25.86,25.34,4.68,51.12,7.47,76.64,11,23.18,3.24,47.36,5.07,69.67,12.56,22.93,7.7,47.93,26.36,45.71,53.4-0.08,1,1.47,1,1.55,0,1.54-18.67-10.65-35-25.6-44.87-18.29-12.11-40.93-15.55-62.21-18.56q-38.63-5.47-77.27-10.8c-23.55-3.29-48.31-5.94-69.28-18.08-10.49-6.08-19.09-14.26-24.49-25.18-5.11-10.33-8.45-22.16-8.64-33.72a0.77,0.77,0,0,0-1.55,0h0Z" transform="translate(-660.11 -487.25)"/>
    <path class="cls-1" d="M927.73,488c-0.33,20.62-9.45,42.2-26.3,54.48-19.25,14-43.55,17.92-66.56,21.17q-38.75,5.48-77.53,10.84c-21.9,3.06-44.74,5.57-64.67,15.87-18,9.32-34.19,27.37-32.42,48.86,0.08,1,1.63,1,1.55,0-1.89-23,16.82-41,36.29-49.75,21.65-9.68,46.16-11.6,69.37-14.85,25.7-3.59,51.46-6.86,77.1-10.84,21.18-3.29,43.27-8.33,60.37-22,15.66-12.56,24-33.91,24.35-53.74a0.77,0.77,0,0,0-1.55,0h0Z" transform="translate(-660.11 -487.25)"/>
    <path class="cls-1" d="M927.73,488c0.27,16.82,6.56,36.12,18.42,48.36,14.93,15.42,36.51,22.07,57.05,25.86,25.34,4.68,51.12,7.47,76.64,11,23.18,3.24,47.36,5.07,69.67,12.56,22.93,7.7,47.93,26.36,45.71,53.4-0.08,1,1.47,1,1.55,0,1.54-18.67-10.65-35-25.6-44.87-18.29-12.11-40.93-15.55-62.21-18.56q-38.63-5.47-77.27-10.8c-23.55-3.29-48.31-5.94-69.28-18.08-10.49-6.08-19.09-14.26-24.49-25.18-5.11-10.33-8.45-22.16-8.64-33.72a0.77,0.77,0,0,0-1.55,0h0Z" transform="translate(-660.11 -487.25)"/>
  </g>
</svg>
