<svg id="Layer_1" data-name="Layer 1" xmlns="http://www.w3.org/2000/svg" viewBox="0 0 229.96 152.2">
  <defs>
    <style>
      .cls-1 {
        fill: #c1433c;
      }
    </style>
  </defs>
  <title>small</title>
  <g>
    <path class="cls-1" d="M928,488c-0.19,25.65-4,60-30.22,72.33-7.68,3.62-16.16,5.79-24.22,8.42-7.79,2.54-15.6,5-23.36,7.64-11.08,3.74-20.52,9.57-26.66,19.8-7.66,12.76-10.45,28.31-10,43a0.51,0.51,0,0,0,1,0c-0.49-14.72,2.33-30.39,10.17-43.08,8.25-13.36,21.76-17.48,35.83-22.08l24.6-8c6.69-2.19,13.44-4.33,19.31-8.33,9.55-6.51,15.71-17.07,18.91-28,3.91-13.34,5.5-27.83,5.6-41.7a0.51,0.51,0,0,0-1,0h0Z" transform="translate(-813.52 -487.51)"/>
    <path class="cls-1" d="M928,488c0.16,22.35,2.85,51.38,21,67,10.85,9.33,26.61,12.28,39.87,16.61,14.36,4.69,30.51,8,40.42,20.34,10.32,12.9,13.68,31.18,13.15,47.29a0.51,0.51,0,0,0,1,0c0.8-24.14-7.36-51.32-31.54-61-14.59-5.83-30-9.79-44.87-14.87-15.73-5.37-26.41-15.81-31.72-31.65-4.63-13.8-6.18-29.24-6.28-43.73a0.51,0.51,0,0,0-1,0h0Z" transform="translate(-813.52 -487.51)"/>
    <path class="cls-1" d="M928,488c-0.19,25.65-4,60-30.22,72.33-7.68,3.62-16.16,5.79-24.22,8.42-7.79,2.54-15.6,5-23.36,7.64-11.08,3.74-20.52,9.57-26.66,19.8-7.66,12.76-10.45,28.31-10,43a0.51,0.51,0,0,0,1,0c-0.49-14.72,2.33-30.39,10.17-43.08,8.25-13.36,21.76-17.48,35.83-22.08l24.6-8c6.69-2.19,13.44-4.33,19.31-8.33,9.55-6.51,15.71-17.07,18.91-28,3.91-13.34,5.5-27.83,5.6-41.7a0.51,0.51,0,0,0-1,0h0Z" transform="translate(-813.52 -487.51)"/>
    <path class="cls-1" d="M928,488c0.16,22.35,2.85,51.38,21,67,10.85,9.33,26.61,12.28,39.87,16.61,14.36,4.69,30.51,8,40.42,20.34,10.32,12.9,13.68,31.18,13.15,47.29a0.51,0.51,0,0,0,1,0c0.8-24.14-7.36-51.32-31.54-61-14.59-5.83-30-9.79-44.87-14.87-15.73-5.37-26.41-15.81-31.72-31.65-4.63-13.8-6.18-29.24-6.28-43.73a0.51,0.51,0,0,0-1,0h0Z" transform="translate(-813.52 -487.51)"/>
  </g>
</svg>
